G75*
%MOIN*%
%OFA0B0*%
%FSLAX25Y25*%
%IPPOS*%
%LPD*%
%AMOC8*
5,1,8,0,0,1.08239X$1,22.5*
%
%ADD10R,0.05118X0.05906*%
%ADD11R,0.05906X0.05118*%
D10*
X0082760Y0120250D03*
X0090240Y0120250D03*
X0090240Y0130250D03*
X0082760Y0130250D03*
X0082760Y0140250D03*
X0090240Y0140250D03*
X0090240Y0150250D03*
X0082760Y0150250D03*
X0082760Y0160250D03*
X0090240Y0160250D03*
X0090240Y0170250D03*
X0082760Y0170250D03*
X0082760Y0180250D03*
X0090240Y0180250D03*
X0090240Y0190250D03*
X0082760Y0190250D03*
X0142760Y0190250D03*
X0150240Y0190250D03*
X0150240Y0180250D03*
X0142760Y0180250D03*
X0142760Y0170250D03*
X0142760Y0160250D03*
X0150240Y0160250D03*
X0150240Y0170250D03*
X0150240Y0150250D03*
X0142760Y0150250D03*
X0142760Y0140250D03*
X0150240Y0140250D03*
X0150240Y0130250D03*
X0150240Y0120250D03*
X0142760Y0120250D03*
X0142760Y0130250D03*
X0142760Y0110250D03*
X0150240Y0110250D03*
X0150240Y0100250D03*
X0142760Y0100250D03*
X0142760Y0090250D03*
X0142760Y0080250D03*
X0150240Y0080250D03*
X0150240Y0090250D03*
X0150240Y0070250D03*
X0142760Y0070250D03*
X0142760Y0060250D03*
X0150240Y0060250D03*
X0150240Y0050250D03*
X0150240Y0040250D03*
X0142760Y0040250D03*
X0142760Y0050250D03*
X0142760Y0030250D03*
X0150240Y0030250D03*
X0150240Y0020250D03*
X0142760Y0020250D03*
X0142760Y0010250D03*
X0150240Y0010250D03*
X0117740Y0010250D03*
X0110260Y0010250D03*
X0110260Y0020250D03*
X0117740Y0020250D03*
X0117740Y0030250D03*
X0110260Y0030250D03*
X0110260Y0040250D03*
X0110260Y0050250D03*
X0117740Y0050250D03*
X0117740Y0040250D03*
X0117740Y0060250D03*
X0110260Y0060250D03*
X0110260Y0070250D03*
X0117740Y0070250D03*
X0117740Y0080250D03*
X0117740Y0090250D03*
X0110260Y0090250D03*
X0110260Y0080250D03*
X0110260Y0100250D03*
X0117740Y0100250D03*
X0142760Y0200250D03*
X0150240Y0200250D03*
D11*
X0029000Y0096510D03*
X0029000Y0103990D03*
X0051500Y0103990D03*
X0051500Y0096510D03*
M02*
