G75*
%MOIN*%
%OFA0B0*%
%FSLAX25Y25*%
%IPPOS*%
%LPD*%
%AMOC8*
5,1,8,0,0,1.08239X$1,22.5*
%
%ADD10R,0.05906X0.01378*%
%ADD11R,0.01378X0.05906*%
%ADD12R,0.03500X0.06400*%
%ADD13R,0.12500X0.06400*%
%ADD14R,0.05200X0.05200*%
%ADD15R,0.05906X0.05118*%
%ADD16R,0.09449X0.11024*%
%ADD17R,0.06000X0.06000*%
%ADD18OC8,0.06000*%
%ADD19R,0.05118X0.05906*%
%ADD20C,0.01500*%
%ADD21C,0.03600*%
%ADD22C,0.04000*%
%ADD23R,0.03600X0.03600*%
%ADD24C,0.03000*%
%ADD25C,0.01000*%
D10*
X0008754Y0072878D03*
X0008754Y0074846D03*
X0008754Y0076815D03*
X0008754Y0078783D03*
X0008754Y0080752D03*
X0008754Y0082720D03*
X0008754Y0084689D03*
X0008754Y0086657D03*
X0008754Y0088626D03*
X0008754Y0090594D03*
X0008754Y0092563D03*
X0008754Y0094531D03*
X0008754Y0096500D03*
X0008754Y0098469D03*
X0008754Y0100437D03*
X0008754Y0102406D03*
X0008754Y0104374D03*
X0008754Y0106343D03*
X0008754Y0108311D03*
X0008754Y0110280D03*
X0008754Y0112248D03*
X0008754Y0114217D03*
X0008754Y0116185D03*
X0008754Y0118154D03*
X0008754Y0120122D03*
X0071746Y0120122D03*
X0071746Y0118154D03*
X0071746Y0116185D03*
X0071746Y0114217D03*
X0071746Y0112248D03*
X0071746Y0110280D03*
X0071746Y0108311D03*
X0071746Y0106343D03*
X0071746Y0104374D03*
X0071746Y0102406D03*
X0071746Y0100437D03*
X0071746Y0098469D03*
X0071746Y0096500D03*
X0071746Y0094531D03*
X0071746Y0092563D03*
X0071746Y0090594D03*
X0071746Y0088626D03*
X0071746Y0086657D03*
X0071746Y0084689D03*
X0071746Y0082720D03*
X0071746Y0080752D03*
X0071746Y0078783D03*
X0071746Y0076815D03*
X0071746Y0074846D03*
X0071746Y0072878D03*
D11*
X0063872Y0065004D03*
X0061904Y0065004D03*
X0059935Y0065004D03*
X0057967Y0065004D03*
X0055998Y0065004D03*
X0054030Y0065004D03*
X0052061Y0065004D03*
X0050093Y0065004D03*
X0048124Y0065004D03*
X0046156Y0065004D03*
X0044187Y0065004D03*
X0042219Y0065004D03*
X0040250Y0065004D03*
X0038281Y0065004D03*
X0036313Y0065004D03*
X0034344Y0065004D03*
X0032376Y0065004D03*
X0030407Y0065004D03*
X0028439Y0065004D03*
X0026470Y0065004D03*
X0024502Y0065004D03*
X0022533Y0065004D03*
X0020565Y0065004D03*
X0018596Y0065004D03*
X0016628Y0065004D03*
X0016628Y0127996D03*
X0018596Y0127996D03*
X0020565Y0127996D03*
X0022533Y0127996D03*
X0024502Y0127996D03*
X0026470Y0127996D03*
X0028439Y0127996D03*
X0030407Y0127996D03*
X0032376Y0127996D03*
X0034344Y0127996D03*
X0036313Y0127996D03*
X0038281Y0127996D03*
X0040250Y0127996D03*
X0042219Y0127996D03*
X0044187Y0127996D03*
X0046156Y0127996D03*
X0048124Y0127996D03*
X0050093Y0127996D03*
X0052061Y0127996D03*
X0054030Y0127996D03*
X0055998Y0127996D03*
X0057967Y0127996D03*
X0059935Y0127996D03*
X0061904Y0127996D03*
X0063872Y0127996D03*
D12*
X0030600Y0146400D03*
X0021500Y0146400D03*
X0012400Y0146400D03*
D13*
X0021500Y0171600D03*
D14*
X0100250Y0170250D03*
X0100250Y0160250D03*
X0100250Y0150250D03*
X0100250Y0140250D03*
X0100250Y0130250D03*
X0100250Y0120250D03*
X0100250Y0110250D03*
X0100250Y0100250D03*
X0100250Y0090250D03*
X0100250Y0080250D03*
X0100250Y0070250D03*
X0100250Y0060250D03*
X0100250Y0050250D03*
X0100250Y0040250D03*
X0100250Y0030250D03*
X0100250Y0020250D03*
X0100250Y0010250D03*
X0160250Y0010250D03*
X0160250Y0020250D03*
X0160250Y0030250D03*
X0160250Y0040250D03*
X0160250Y0050250D03*
X0160250Y0060250D03*
X0160250Y0070250D03*
X0160250Y0080250D03*
X0160250Y0090250D03*
X0160250Y0100250D03*
X0160250Y0110250D03*
X0160250Y0120250D03*
X0160250Y0130250D03*
X0160250Y0140250D03*
X0160250Y0150250D03*
X0160250Y0160250D03*
X0160250Y0170250D03*
X0160250Y0180250D03*
X0160250Y0190250D03*
X0160250Y0200250D03*
X0100250Y0200250D03*
X0100250Y0190250D03*
X0100250Y0180250D03*
D15*
X0035250Y0180240D03*
X0035250Y0172760D03*
X0007750Y0172760D03*
X0007750Y0180240D03*
D16*
X0009098Y0194000D03*
X0033902Y0194000D03*
D17*
X0024000Y0015250D03*
D18*
X0024000Y0025250D03*
X0034000Y0025250D03*
X0034000Y0015250D03*
X0044000Y0015250D03*
X0044000Y0025250D03*
X0054000Y0025250D03*
X0054000Y0015250D03*
X0064000Y0015250D03*
X0064000Y0025250D03*
D19*
X0025240Y0039000D03*
X0025240Y0046500D03*
X0025240Y0054000D03*
X0017760Y0054000D03*
X0017760Y0046500D03*
X0017760Y0039000D03*
D20*
X0004000Y0014000D02*
X0011500Y0006500D01*
X0035250Y0006500D01*
X0044000Y0015250D01*
X0034000Y0015250D02*
X0034000Y0014000D01*
X0030250Y0010250D01*
X0015250Y0010250D01*
X0009000Y0016500D01*
X0009000Y0034000D01*
X0012750Y0039000D02*
X0012750Y0021500D01*
X0019000Y0015250D01*
X0024000Y0015250D01*
X0020250Y0020250D02*
X0059000Y0020250D01*
X0064000Y0015250D01*
X0072750Y0012750D02*
X0072750Y0026500D01*
X0065250Y0034000D01*
X0047750Y0034000D01*
X0038281Y0043469D01*
X0038281Y0065004D01*
X0040250Y0065004D02*
X0040250Y0045250D01*
X0049000Y0036500D01*
X0066500Y0036500D01*
X0076500Y0026500D01*
X0076500Y0020250D01*
X0081500Y0015250D01*
X0131500Y0015250D01*
X0131500Y0025250D02*
X0081500Y0025250D01*
X0067750Y0039000D01*
X0050250Y0039000D01*
X0042219Y0047031D01*
X0042219Y0065004D01*
X0044187Y0065004D02*
X0044187Y0048813D01*
X0051500Y0041500D01*
X0069000Y0041500D01*
X0075250Y0035250D01*
X0131500Y0035250D01*
X0131500Y0045250D02*
X0051500Y0045250D01*
X0046156Y0050594D01*
X0046156Y0065004D01*
X0048124Y0065004D02*
X0048124Y0052376D01*
X0052750Y0047750D01*
X0089000Y0047750D01*
X0096500Y0055250D01*
X0131500Y0055250D01*
X0131500Y0065250D02*
X0096500Y0065250D01*
X0095250Y0064000D01*
X0095250Y0057750D01*
X0087750Y0050250D01*
X0054000Y0050250D01*
X0050093Y0054157D01*
X0050093Y0065004D01*
X0052061Y0065004D02*
X0052061Y0055939D01*
X0055250Y0052750D01*
X0085250Y0052750D01*
X0092750Y0060250D01*
X0092750Y0071500D01*
X0096500Y0075250D01*
X0131500Y0075250D01*
X0131500Y0085250D02*
X0097750Y0085250D01*
X0090250Y0077750D01*
X0090250Y0061500D01*
X0084000Y0055250D01*
X0060250Y0055250D01*
X0057967Y0057533D01*
X0057967Y0065004D01*
X0059935Y0065004D02*
X0059935Y0059315D01*
X0061500Y0057750D01*
X0082750Y0057750D01*
X0087750Y0062750D01*
X0087750Y0079000D01*
X0095250Y0086500D01*
X0095250Y0094000D01*
X0096500Y0095250D01*
X0131500Y0095250D01*
X0131500Y0105250D02*
X0097750Y0105250D01*
X0092750Y0100250D01*
X0092750Y0087750D01*
X0085250Y0080250D01*
X0085250Y0064000D01*
X0081500Y0060250D01*
X0062750Y0060250D01*
X0061904Y0061096D01*
X0061904Y0065004D01*
X0063872Y0065004D02*
X0066746Y0065004D01*
X0067750Y0064000D01*
X0067750Y0069000D02*
X0067868Y0069000D01*
X0071746Y0072878D01*
X0071746Y0074846D02*
X0066096Y0074846D01*
X0064000Y0072750D01*
X0064935Y0076815D02*
X0064000Y0077750D01*
X0064935Y0076815D02*
X0071746Y0076815D01*
X0071746Y0078783D02*
X0076717Y0078783D01*
X0081500Y0074000D01*
X0081500Y0079000D02*
X0079748Y0080752D01*
X0071746Y0080752D01*
X0071746Y0082720D02*
X0080220Y0082720D01*
X0081500Y0084000D01*
X0077189Y0084689D02*
X0081500Y0089000D01*
X0077189Y0084689D02*
X0071746Y0084689D01*
X0071746Y0088626D02*
X0056874Y0088626D01*
X0056500Y0089000D01*
X0056500Y0096500D02*
X0071746Y0096500D01*
X0071746Y0098469D02*
X0087219Y0098469D01*
X0089000Y0100250D01*
X0084906Y0102406D02*
X0097750Y0115250D01*
X0131500Y0115250D01*
X0131500Y0125250D02*
X0095250Y0125250D01*
X0084217Y0114217D01*
X0071746Y0114217D01*
X0071746Y0116185D02*
X0064315Y0116185D01*
X0064000Y0116500D01*
X0059000Y0116500D02*
X0057967Y0117533D01*
X0057967Y0127996D01*
X0059935Y0127996D02*
X0059935Y0134935D01*
X0080250Y0155250D01*
X0131500Y0155250D01*
X0131500Y0145250D02*
X0082750Y0145250D01*
X0065496Y0127996D01*
X0063872Y0127996D01*
X0061904Y0127996D02*
X0061904Y0133154D01*
X0065250Y0136500D01*
X0067750Y0136500D01*
X0074000Y0142750D01*
X0074000Y0131500D02*
X0071500Y0129000D01*
X0071500Y0120368D01*
X0071746Y0120122D01*
X0071746Y0118154D02*
X0078154Y0118154D01*
X0095250Y0135250D01*
X0131500Y0135250D01*
X0131500Y0165250D02*
X0077750Y0165250D01*
X0052061Y0139561D01*
X0052061Y0127996D01*
X0050093Y0127996D02*
X0050093Y0143843D01*
X0074000Y0167750D01*
X0075250Y0175250D02*
X0131500Y0175250D01*
X0131500Y0185250D02*
X0072750Y0185250D01*
X0044187Y0156687D01*
X0044187Y0127996D01*
X0042219Y0127996D02*
X0042219Y0160969D01*
X0071500Y0190250D01*
X0074000Y0190250D01*
X0070250Y0195250D02*
X0131500Y0195250D01*
X0074000Y0180250D02*
X0046156Y0152406D01*
X0046156Y0127996D01*
X0048124Y0127996D02*
X0048124Y0148124D01*
X0075250Y0175250D01*
X0070250Y0195250D02*
X0040250Y0165250D01*
X0040250Y0127996D01*
X0032750Y0119000D02*
X0030407Y0121343D01*
X0030407Y0127996D01*
X0028439Y0127996D02*
X0028439Y0115939D01*
X0027750Y0115250D01*
X0024000Y0114000D02*
X0022750Y0114000D01*
X0021126Y0104374D02*
X0021500Y0104000D01*
X0021126Y0104374D02*
X0008754Y0104374D01*
X0008754Y0102406D02*
X0013281Y0102406D01*
X0015250Y0100437D01*
X0017563Y0100437D01*
X0017750Y0100250D01*
X0015250Y0100437D02*
X0008754Y0100437D01*
X0008754Y0096500D02*
X0021500Y0096500D01*
X0027750Y0081500D02*
X0026470Y0080220D01*
X0026470Y0065004D01*
X0026500Y0064974D01*
X0026500Y0060250D01*
X0029000Y0057750D01*
X0029000Y0054000D01*
X0025240Y0054000D01*
X0029000Y0054000D02*
X0029000Y0046500D01*
X0025240Y0046500D01*
X0029000Y0046500D02*
X0029000Y0039000D01*
X0025240Y0039000D01*
X0029000Y0039000D02*
X0029000Y0030250D01*
X0034000Y0025250D01*
X0020250Y0020250D02*
X0017750Y0022750D01*
X0017750Y0031500D01*
X0017750Y0039000D01*
X0017760Y0039000D01*
X0017760Y0046500D02*
X0004000Y0046500D01*
X0004000Y0045250D01*
X0004000Y0014000D01*
X0004000Y0046500D02*
X0004000Y0077750D01*
X0005033Y0078783D01*
X0008754Y0078783D01*
X0008754Y0076815D02*
X0017435Y0076815D01*
X0017750Y0076500D01*
X0015250Y0074000D02*
X0015250Y0071500D01*
X0012750Y0069000D01*
X0012750Y0054000D01*
X0017760Y0054000D01*
X0009000Y0059000D02*
X0009000Y0072632D01*
X0008754Y0072878D01*
X0008754Y0074846D02*
X0014404Y0074846D01*
X0015250Y0074000D01*
X0028439Y0074689D02*
X0028439Y0065004D01*
X0028439Y0074689D02*
X0030250Y0076500D01*
X0053375Y0082125D02*
X0054030Y0081470D01*
X0054030Y0065004D01*
X0055998Y0065004D02*
X0055998Y0077248D01*
X0059000Y0080250D01*
X0064906Y0090594D02*
X0062750Y0092750D01*
X0064906Y0090594D02*
X0071746Y0090594D01*
X0071746Y0092563D02*
X0087937Y0092563D01*
X0089000Y0091500D01*
X0084906Y0102406D02*
X0071746Y0102406D01*
X0071746Y0100437D02*
X0063813Y0100437D01*
X0062750Y0101500D01*
X0071746Y0112248D02*
X0077002Y0112248D01*
X0081500Y0107750D01*
X0055998Y0119748D02*
X0051500Y0115250D01*
X0055998Y0119748D02*
X0055998Y0127996D01*
X0054030Y0127996D02*
X0054030Y0135280D01*
X0074000Y0155250D01*
X0072750Y0012750D02*
X0080250Y0005250D01*
X0131500Y0005250D01*
D21*
X0131500Y0005250D03*
X0131500Y0015250D03*
X0131500Y0025250D03*
X0131500Y0035250D03*
X0131500Y0045250D03*
X0131500Y0055250D03*
X0131500Y0065250D03*
X0131500Y0075250D03*
X0131500Y0085250D03*
X0131500Y0095250D03*
X0131500Y0105250D03*
X0131500Y0115250D03*
X0131500Y0125250D03*
X0131500Y0135250D03*
X0131500Y0145250D03*
X0131500Y0155250D03*
X0131500Y0165250D03*
X0131500Y0175250D03*
X0131500Y0185250D03*
X0131500Y0195250D03*
X0074000Y0190250D03*
X0074000Y0180250D03*
X0074000Y0167750D03*
X0074000Y0155250D03*
X0074000Y0142750D03*
X0074000Y0131500D03*
X0064000Y0116500D03*
X0081500Y0107750D03*
X0089000Y0100250D03*
X0089000Y0091500D03*
X0081500Y0089000D03*
X0081500Y0084000D03*
X0081500Y0079000D03*
X0081500Y0074000D03*
X0067750Y0069000D03*
X0067750Y0064000D03*
X0064000Y0072750D03*
X0064000Y0077750D03*
X0017750Y0076500D03*
X0009000Y0059000D03*
X0012750Y0054000D03*
X0012750Y0039000D03*
X0009000Y0034000D03*
X0017750Y0031500D03*
D22*
X0022750Y0114000D02*
X0007750Y0129000D01*
X0021500Y0142750D01*
X0021500Y0146400D01*
X0021500Y0155250D01*
X0007750Y0169000D01*
X0007750Y0172760D01*
X0007750Y0180240D02*
X0035250Y0180240D01*
X0035250Y0192652D01*
X0033902Y0194000D01*
X0060250Y0194000D01*
X0066500Y0200250D01*
X0100250Y0200250D01*
X0049000Y0205250D02*
X0045250Y0205250D01*
X0041500Y0205250D01*
X0016500Y0205250D01*
X0009098Y0197848D01*
X0009098Y0194000D01*
X0035250Y0172760D02*
X0040260Y0172760D01*
X0045250Y0177750D01*
X0045250Y0180250D01*
X0045250Y0184000D01*
X0035250Y0172760D02*
X0035250Y0151050D01*
X0030600Y0146400D01*
X0012400Y0146400D02*
X0012400Y0150600D01*
X0006500Y0156500D01*
X0006500Y0160250D01*
D23*
X0006500Y0160250D03*
X0006500Y0156500D03*
X0017750Y0180250D03*
X0021500Y0180250D03*
X0025250Y0180250D03*
X0045250Y0180250D03*
X0045250Y0184000D03*
X0045250Y0205250D03*
X0041500Y0205250D03*
X0049000Y0205250D03*
X0032750Y0119000D03*
X0017750Y0100250D03*
X0029000Y0090250D03*
X0030250Y0076500D03*
X0051500Y0090250D03*
X0059000Y0080250D03*
X0062750Y0092750D03*
X0062750Y0101500D03*
X0059000Y0116500D03*
D24*
X0056500Y0111500D02*
X0052750Y0115250D01*
X0051500Y0115250D01*
X0027750Y0115250D01*
X0025250Y0115250D01*
X0024000Y0114000D01*
X0021500Y0111500D01*
X0021500Y0104000D01*
X0021500Y0096500D01*
X0021500Y0090250D01*
X0021500Y0085250D01*
X0025250Y0081500D01*
X0027750Y0081500D01*
X0052750Y0081500D01*
X0053375Y0082125D01*
X0056500Y0085250D01*
X0056500Y0089000D01*
X0056500Y0090250D01*
X0056500Y0096500D01*
X0056500Y0111500D01*
X0056500Y0090250D02*
X0051500Y0090250D01*
X0029000Y0090250D02*
X0021500Y0090250D01*
D25*
X0022750Y0090368D02*
X0055250Y0090368D01*
X0055250Y0091366D02*
X0022750Y0091366D01*
X0022750Y0092365D02*
X0055250Y0092365D01*
X0055250Y0093363D02*
X0022750Y0093363D01*
X0022750Y0094362D02*
X0055250Y0094362D01*
X0055250Y0095360D02*
X0022750Y0095360D01*
X0022750Y0096359D02*
X0055250Y0096359D01*
X0055250Y0097357D02*
X0022750Y0097357D01*
X0022750Y0098356D02*
X0055250Y0098356D01*
X0055250Y0099354D02*
X0022750Y0099354D01*
X0022750Y0100353D02*
X0055250Y0100353D01*
X0055250Y0101351D02*
X0022750Y0101351D01*
X0022750Y0102350D02*
X0055250Y0102350D01*
X0055250Y0103348D02*
X0022750Y0103348D01*
X0022750Y0104347D02*
X0055250Y0104347D01*
X0055250Y0105345D02*
X0022750Y0105345D01*
X0022750Y0106344D02*
X0055250Y0106344D01*
X0055250Y0107342D02*
X0022750Y0107342D01*
X0022750Y0108341D02*
X0055250Y0108341D01*
X0055250Y0109339D02*
X0022750Y0109339D01*
X0022750Y0110338D02*
X0055250Y0110338D01*
X0055250Y0111336D02*
X0022750Y0111336D01*
X0022750Y0112335D02*
X0055250Y0112335D01*
X0055250Y0113333D02*
X0022750Y0113333D01*
X0022750Y0114000D02*
X0055250Y0114000D01*
X0055250Y0082750D01*
X0022750Y0082750D01*
X0022750Y0114000D01*
X0022750Y0089369D02*
X0055250Y0089369D01*
X0055250Y0088370D02*
X0022750Y0088370D01*
X0022750Y0087372D02*
X0055250Y0087372D01*
X0055250Y0086373D02*
X0022750Y0086373D01*
X0022750Y0085375D02*
X0055250Y0085375D01*
X0055250Y0084376D02*
X0022750Y0084376D01*
X0022750Y0083378D02*
X0055250Y0083378D01*
M02*
