G75*
%MOIN*%
%OFA0B0*%
%FSLAX25Y25*%
%IPPOS*%
%LPD*%
%AMOC8*
5,1,8,0,0,1.08239X$1,22.5*
%
%ADD10C,0.00500*%
%ADD11C,0.00600*%
%ADD12C,0.01000*%
%ADD13C,0.00400*%
%ADD14C,0.00300*%
%ADD15C,0.00200*%
%ADD16R,0.04133X0.01182*%
%ADD17R,0.04133X0.01181*%
%ADD18R,0.01182X0.04133*%
%ADD19R,0.01181X0.04133*%
%ADD20R,0.05709X0.02953*%
%ADD21R,0.00787X0.09449*%
%ADD22R,0.04331X0.16535*%
%ADD23R,0.02000X0.02000*%
%ADD24R,0.02559X0.05512*%
D10*
X0005745Y0011085D02*
X0005745Y0012920D01*
X0005745Y0012002D02*
X0010333Y0012002D01*
X0011250Y0011085D01*
X0011250Y0010167D01*
X0010333Y0009250D01*
X0014000Y0005250D02*
X0014000Y0035250D01*
X0074000Y0035250D01*
X0074000Y0005250D01*
X0051500Y0005250D01*
X0051500Y0007750D01*
X0036500Y0007750D01*
X0036500Y0005250D01*
X0014000Y0005250D01*
X0011250Y0016610D02*
X0005745Y0016610D01*
X0005745Y0014775D02*
X0005745Y0018445D01*
X0007580Y0020299D02*
X0005745Y0022134D01*
X0007580Y0023969D01*
X0011250Y0023969D01*
X0010333Y0025824D02*
X0011250Y0026742D01*
X0011250Y0028577D01*
X0010333Y0029494D01*
X0008498Y0029494D01*
X0008498Y0027659D01*
X0006663Y0025824D02*
X0010333Y0025824D01*
X0008498Y0023969D02*
X0008498Y0020299D01*
X0007580Y0020299D02*
X0011250Y0020299D01*
X0006663Y0025824D02*
X0005745Y0026742D01*
X0005745Y0028577D01*
X0006663Y0029494D01*
X0055500Y0159250D02*
X0058252Y0159250D01*
X0059170Y0160167D01*
X0059170Y0161085D01*
X0058252Y0162002D01*
X0055500Y0162002D01*
X0055500Y0159250D02*
X0055500Y0164755D01*
X0058252Y0164755D01*
X0059170Y0163837D01*
X0059170Y0162920D01*
X0058252Y0162002D01*
X0061025Y0160167D02*
X0061942Y0159250D01*
X0063777Y0159250D01*
X0064695Y0160167D01*
X0064695Y0163837D01*
X0063777Y0164755D01*
X0061942Y0164755D01*
X0061025Y0163837D01*
X0061025Y0160167D01*
X0066549Y0159250D02*
X0066549Y0162920D01*
X0068384Y0164755D01*
X0070219Y0162920D01*
X0070219Y0159250D01*
X0072074Y0159250D02*
X0072074Y0164755D01*
X0074827Y0164755D01*
X0075744Y0163837D01*
X0075744Y0162002D01*
X0074827Y0161085D01*
X0072074Y0161085D01*
X0073909Y0161085D02*
X0075744Y0159250D01*
X0077599Y0159250D02*
X0080351Y0159250D01*
X0081269Y0160167D01*
X0081269Y0163837D01*
X0080351Y0164755D01*
X0077599Y0164755D01*
X0077599Y0159250D01*
X0070219Y0162002D02*
X0066549Y0162002D01*
X0066994Y0170500D02*
X0063324Y0170500D01*
X0063324Y0176005D01*
X0061469Y0176005D02*
X0061469Y0171417D01*
X0060552Y0170500D01*
X0058717Y0170500D01*
X0057799Y0171417D01*
X0057799Y0176005D01*
X0055945Y0176005D02*
X0055945Y0170500D01*
X0052275Y0170500D02*
X0052275Y0176005D01*
X0054110Y0174170D01*
X0055945Y0176005D01*
X0050420Y0176005D02*
X0046750Y0176005D01*
X0046750Y0170500D01*
X0050420Y0170500D01*
X0048585Y0173252D02*
X0046750Y0173252D01*
X0053585Y0183000D02*
X0053585Y0185752D01*
X0055420Y0187587D01*
X0055420Y0188505D01*
X0053585Y0185752D02*
X0051750Y0187587D01*
X0051750Y0188505D01*
X0053585Y0194250D02*
X0053585Y0197002D01*
X0055420Y0198837D01*
X0055420Y0199755D01*
X0053585Y0197002D02*
X0051750Y0198837D01*
X0051750Y0199755D01*
X0057275Y0197920D02*
X0057275Y0194250D01*
X0057275Y0197002D02*
X0060945Y0197002D01*
X0060945Y0197920D02*
X0059110Y0199755D01*
X0057275Y0197920D01*
X0060945Y0197920D02*
X0060945Y0194250D01*
X0062799Y0194250D02*
X0062799Y0199755D01*
X0064634Y0197920D01*
X0066469Y0199755D01*
X0066469Y0194250D01*
X0068324Y0194250D02*
X0068324Y0197920D01*
X0070159Y0199755D01*
X0071994Y0197920D01*
X0071994Y0194250D01*
X0073849Y0194250D02*
X0073849Y0199755D01*
X0073849Y0197002D02*
X0077519Y0197002D01*
X0079374Y0197002D02*
X0083043Y0197002D01*
X0083043Y0197920D02*
X0081208Y0199755D01*
X0079374Y0197920D01*
X0079374Y0194250D01*
X0077519Y0194250D02*
X0077519Y0199755D01*
X0083043Y0197920D02*
X0083043Y0194250D01*
X0082126Y0188505D02*
X0079374Y0185752D01*
X0083043Y0185752D01*
X0082126Y0183000D02*
X0082126Y0188505D01*
X0075684Y0188505D02*
X0075684Y0183000D01*
X0073849Y0183000D02*
X0077519Y0183000D01*
X0073849Y0186670D02*
X0075684Y0188505D01*
X0071994Y0187587D02*
X0071994Y0186670D01*
X0068324Y0183000D01*
X0071994Y0183000D01*
X0071994Y0187587D02*
X0071077Y0188505D01*
X0069242Y0188505D01*
X0068324Y0187587D01*
X0066469Y0188505D02*
X0062799Y0188505D01*
X0062799Y0185752D01*
X0064634Y0186670D01*
X0065552Y0186670D01*
X0066469Y0185752D01*
X0066469Y0183917D01*
X0065552Y0183000D01*
X0063717Y0183000D01*
X0062799Y0183917D01*
X0060945Y0183000D02*
X0060945Y0188505D01*
X0059110Y0186670D01*
X0057275Y0188505D01*
X0057275Y0183000D01*
X0068849Y0174170D02*
X0068849Y0170500D01*
X0068849Y0173252D02*
X0072519Y0173252D01*
X0072519Y0174170D02*
X0072519Y0170500D01*
X0072519Y0174170D02*
X0070684Y0176005D01*
X0068849Y0174170D01*
X0074374Y0176005D02*
X0078043Y0176005D01*
X0076208Y0176005D02*
X0076208Y0170500D01*
X0079898Y0171417D02*
X0080816Y0170500D01*
X0082651Y0170500D01*
X0083568Y0171417D01*
X0083568Y0175087D01*
X0082651Y0176005D01*
X0080816Y0176005D01*
X0079898Y0175087D01*
X0079898Y0171417D01*
X0085423Y0170500D02*
X0085423Y0176005D01*
X0088175Y0176005D01*
X0089093Y0175087D01*
X0089093Y0173252D01*
X0088175Y0172335D01*
X0085423Y0172335D01*
X0087258Y0172335D02*
X0089093Y0170500D01*
X0071994Y0197002D02*
X0068324Y0197002D01*
D11*
X0034700Y0166300D02*
X0008300Y0166300D01*
X0008300Y0151700D01*
X0034700Y0151700D01*
X0034700Y0166300D01*
X0008300Y0166300D01*
X0008300Y0151700D01*
X0034700Y0151700D01*
X0034700Y0166300D01*
X0027700Y0166300D02*
X0027700Y0173400D01*
X0015200Y0173400D01*
X0015300Y0166300D01*
X0027700Y0166300D01*
X0028900Y0151700D02*
X0028900Y0144600D01*
X0032300Y0144600D01*
X0032300Y0151700D01*
X0028900Y0151700D01*
X0023200Y0151700D02*
X0023200Y0144600D01*
X0019800Y0144600D01*
X0019800Y0151700D01*
X0023200Y0151700D01*
X0014100Y0151700D02*
X0014100Y0144600D01*
X0010700Y0144600D01*
X0010700Y0151700D01*
X0014100Y0151700D01*
X0019886Y0056500D02*
X0023114Y0056500D01*
X0023114Y0051500D02*
X0019886Y0051500D01*
X0019886Y0049000D02*
X0023114Y0049000D01*
X0023114Y0044000D02*
X0019886Y0044000D01*
X0019886Y0041500D02*
X0023114Y0041500D01*
X0023114Y0036500D02*
X0019886Y0036500D01*
X0034300Y0043050D02*
X0034300Y0049455D01*
X0037503Y0049455D01*
X0038570Y0048388D01*
X0038570Y0046253D01*
X0037503Y0045185D01*
X0034300Y0045185D01*
X0036435Y0045185D02*
X0038570Y0043050D01*
X0040745Y0043050D02*
X0043948Y0043050D01*
X0045016Y0044118D01*
X0045016Y0045185D01*
X0043948Y0046253D01*
X0040745Y0046253D01*
X0040745Y0049455D02*
X0040745Y0043050D01*
X0043948Y0046253D02*
X0045016Y0047320D01*
X0045016Y0048388D01*
X0043948Y0049455D01*
X0040745Y0049455D01*
X0047191Y0048388D02*
X0047191Y0047320D01*
X0048259Y0046253D01*
X0050394Y0046253D01*
X0051461Y0045185D01*
X0051461Y0044118D01*
X0050394Y0043050D01*
X0048259Y0043050D01*
X0047191Y0044118D01*
X0047191Y0048388D02*
X0048259Y0049455D01*
X0050394Y0049455D01*
X0051461Y0048388D01*
X0053636Y0048388D02*
X0053636Y0044118D01*
X0054704Y0043050D01*
X0056839Y0043050D01*
X0057907Y0044118D01*
X0057907Y0048388D02*
X0056839Y0049455D01*
X0054704Y0049455D01*
X0053636Y0048388D01*
X0066527Y0048388D02*
X0067595Y0049455D01*
X0069730Y0049455D01*
X0070798Y0048388D01*
X0070798Y0047320D01*
X0066527Y0043050D01*
X0070798Y0043050D01*
X0072973Y0044118D02*
X0077243Y0048388D01*
X0077243Y0044118D01*
X0076176Y0043050D01*
X0074041Y0043050D01*
X0072973Y0044118D01*
X0072973Y0048388D01*
X0074041Y0049455D01*
X0076176Y0049455D01*
X0077243Y0048388D01*
X0079418Y0048388D02*
X0080486Y0049455D01*
X0082621Y0049455D01*
X0083689Y0048388D01*
X0083689Y0047320D01*
X0079418Y0043050D01*
X0083689Y0043050D01*
X0085864Y0044118D02*
X0086932Y0043050D01*
X0089067Y0043050D01*
X0090134Y0044118D01*
X0090134Y0045185D01*
X0089067Y0046253D01*
X0087999Y0046253D01*
X0089067Y0046253D02*
X0090134Y0047320D01*
X0090134Y0048388D01*
X0089067Y0049455D01*
X0086932Y0049455D01*
X0085864Y0048388D01*
X0084300Y0023205D02*
X0084300Y0016800D01*
X0086435Y0018935D01*
X0088570Y0016800D01*
X0088570Y0023205D01*
X0103750Y0005250D02*
X0156750Y0005250D01*
X0156750Y0205250D01*
X0133750Y0205250D01*
X0133748Y0205124D01*
X0133742Y0204999D01*
X0133732Y0204874D01*
X0133718Y0204749D01*
X0133701Y0204624D01*
X0133679Y0204500D01*
X0133654Y0204377D01*
X0133624Y0204255D01*
X0133591Y0204134D01*
X0133554Y0204014D01*
X0133514Y0203895D01*
X0133469Y0203778D01*
X0133421Y0203661D01*
X0133369Y0203547D01*
X0133314Y0203434D01*
X0133255Y0203323D01*
X0133193Y0203214D01*
X0133127Y0203107D01*
X0133058Y0203002D01*
X0132986Y0202899D01*
X0132911Y0202798D01*
X0132832Y0202700D01*
X0132750Y0202605D01*
X0132666Y0202512D01*
X0132578Y0202422D01*
X0132488Y0202334D01*
X0132395Y0202250D01*
X0132300Y0202168D01*
X0132202Y0202089D01*
X0132101Y0202014D01*
X0131998Y0201942D01*
X0131893Y0201873D01*
X0131786Y0201807D01*
X0131677Y0201745D01*
X0131566Y0201686D01*
X0131453Y0201631D01*
X0131339Y0201579D01*
X0131222Y0201531D01*
X0131105Y0201486D01*
X0130986Y0201446D01*
X0130866Y0201409D01*
X0130745Y0201376D01*
X0130623Y0201346D01*
X0130500Y0201321D01*
X0130376Y0201299D01*
X0130251Y0201282D01*
X0130126Y0201268D01*
X0130001Y0201258D01*
X0129876Y0201252D01*
X0129750Y0201250D01*
X0129624Y0201252D01*
X0129499Y0201258D01*
X0129374Y0201268D01*
X0129249Y0201282D01*
X0129124Y0201299D01*
X0129000Y0201321D01*
X0128877Y0201346D01*
X0128755Y0201376D01*
X0128634Y0201409D01*
X0128514Y0201446D01*
X0128395Y0201486D01*
X0128278Y0201531D01*
X0128161Y0201579D01*
X0128047Y0201631D01*
X0127934Y0201686D01*
X0127823Y0201745D01*
X0127714Y0201807D01*
X0127607Y0201873D01*
X0127502Y0201942D01*
X0127399Y0202014D01*
X0127298Y0202089D01*
X0127200Y0202168D01*
X0127105Y0202250D01*
X0127012Y0202334D01*
X0126922Y0202422D01*
X0126834Y0202512D01*
X0126750Y0202605D01*
X0126668Y0202700D01*
X0126589Y0202798D01*
X0126514Y0202899D01*
X0126442Y0203002D01*
X0126373Y0203107D01*
X0126307Y0203214D01*
X0126245Y0203323D01*
X0126186Y0203434D01*
X0126131Y0203547D01*
X0126079Y0203661D01*
X0126031Y0203778D01*
X0125986Y0203895D01*
X0125946Y0204014D01*
X0125909Y0204134D01*
X0125876Y0204255D01*
X0125846Y0204377D01*
X0125821Y0204500D01*
X0125799Y0204624D01*
X0125782Y0204749D01*
X0125768Y0204874D01*
X0125758Y0204999D01*
X0125752Y0205124D01*
X0125750Y0205250D01*
X0103750Y0205250D01*
X0103750Y0005250D01*
X0143545Y0063050D02*
X0144612Y0063050D01*
X0146747Y0065185D01*
X0149950Y0065185D01*
X0146747Y0065185D02*
X0144612Y0067320D01*
X0143545Y0067320D01*
X0143545Y0069495D02*
X0145680Y0071631D01*
X0143545Y0073766D01*
X0149950Y0073766D01*
X0148882Y0075941D02*
X0149950Y0077009D01*
X0149950Y0079144D01*
X0148882Y0080211D01*
X0146747Y0080211D01*
X0145680Y0079144D01*
X0145680Y0078076D01*
X0146747Y0075941D01*
X0143545Y0075941D01*
X0143545Y0080211D01*
X0144612Y0082386D02*
X0143545Y0083454D01*
X0143545Y0085589D01*
X0144612Y0086657D01*
X0145680Y0086657D01*
X0149950Y0082386D01*
X0149950Y0086657D01*
X0149950Y0088832D02*
X0149950Y0093102D01*
X0149950Y0090967D02*
X0143545Y0090967D01*
X0145680Y0088832D01*
X0146747Y0095277D02*
X0146747Y0099548D01*
X0143545Y0098480D02*
X0146747Y0095277D01*
X0149950Y0098480D02*
X0143545Y0098480D01*
X0144612Y0108168D02*
X0143545Y0109236D01*
X0143545Y0111371D01*
X0144612Y0112439D01*
X0144612Y0114614D02*
X0143545Y0115682D01*
X0143545Y0117817D01*
X0144612Y0118884D01*
X0148882Y0118884D01*
X0149950Y0117817D01*
X0149950Y0115682D01*
X0148882Y0114614D01*
X0144612Y0114614D01*
X0147815Y0112439D02*
X0148882Y0112439D01*
X0149950Y0111371D01*
X0149950Y0109236D01*
X0148882Y0108168D01*
X0146747Y0109236D02*
X0146747Y0111371D01*
X0147815Y0112439D01*
X0146747Y0109236D02*
X0145680Y0108168D01*
X0144612Y0108168D01*
X0144612Y0121059D02*
X0148882Y0121059D01*
X0149950Y0122127D01*
X0149950Y0124262D01*
X0148882Y0125330D01*
X0147815Y0127505D02*
X0143545Y0131775D01*
X0143545Y0133950D02*
X0149950Y0133950D01*
X0149950Y0138221D01*
X0146747Y0136086D02*
X0146747Y0133950D01*
X0143545Y0133950D02*
X0143545Y0138221D01*
X0143545Y0140396D02*
X0143545Y0144666D01*
X0143545Y0142531D02*
X0149950Y0142531D01*
X0149950Y0131775D02*
X0146747Y0128573D01*
X0143545Y0127505D02*
X0149950Y0127505D01*
X0144612Y0125330D02*
X0143545Y0124262D01*
X0143545Y0122127D01*
X0144612Y0121059D01*
X0143545Y0069495D02*
X0149950Y0069495D01*
D12*
X0080910Y0020250D02*
X0080912Y0020399D01*
X0080918Y0020549D01*
X0080928Y0020698D01*
X0080942Y0020847D01*
X0080960Y0020995D01*
X0080982Y0021143D01*
X0081008Y0021290D01*
X0081037Y0021437D01*
X0081071Y0021582D01*
X0081109Y0021727D01*
X0081150Y0021870D01*
X0081195Y0022013D01*
X0081244Y0022154D01*
X0081297Y0022294D01*
X0081354Y0022432D01*
X0081414Y0022569D01*
X0081478Y0022704D01*
X0081545Y0022838D01*
X0081616Y0022969D01*
X0081690Y0023099D01*
X0081768Y0023226D01*
X0081849Y0023352D01*
X0081934Y0023475D01*
X0082022Y0023596D01*
X0082113Y0023714D01*
X0082207Y0023830D01*
X0082304Y0023944D01*
X0082405Y0024055D01*
X0082508Y0024163D01*
X0082614Y0024268D01*
X0082723Y0024371D01*
X0082834Y0024470D01*
X0082948Y0024567D01*
X0083065Y0024660D01*
X0083184Y0024750D01*
X0083306Y0024837D01*
X0083429Y0024921D01*
X0083555Y0025002D01*
X0083683Y0025079D01*
X0083814Y0025152D01*
X0083946Y0025222D01*
X0084079Y0025289D01*
X0084215Y0025352D01*
X0084352Y0025411D01*
X0084491Y0025466D01*
X0084631Y0025518D01*
X0084773Y0025566D01*
X0084915Y0025611D01*
X0085059Y0025651D01*
X0085204Y0025688D01*
X0085350Y0025720D01*
X0085497Y0025749D01*
X0085644Y0025774D01*
X0085792Y0025795D01*
X0085940Y0025812D01*
X0086089Y0025825D01*
X0086239Y0025834D01*
X0086388Y0025839D01*
X0086537Y0025840D01*
X0086687Y0025837D01*
X0086836Y0025830D01*
X0086985Y0025819D01*
X0087134Y0025804D01*
X0087282Y0025785D01*
X0087430Y0025762D01*
X0087577Y0025735D01*
X0087723Y0025705D01*
X0087868Y0025670D01*
X0088013Y0025631D01*
X0088156Y0025589D01*
X0088298Y0025543D01*
X0088439Y0025493D01*
X0088579Y0025439D01*
X0088717Y0025382D01*
X0088853Y0025321D01*
X0088988Y0025256D01*
X0089121Y0025188D01*
X0089252Y0025116D01*
X0089381Y0025040D01*
X0089508Y0024962D01*
X0089633Y0024880D01*
X0089755Y0024794D01*
X0089876Y0024706D01*
X0089994Y0024614D01*
X0090109Y0024519D01*
X0090222Y0024421D01*
X0090332Y0024320D01*
X0090439Y0024216D01*
X0090544Y0024109D01*
X0090646Y0024000D01*
X0090745Y0023888D01*
X0090840Y0023773D01*
X0090933Y0023655D01*
X0091022Y0023536D01*
X0091109Y0023414D01*
X0091192Y0023289D01*
X0091271Y0023163D01*
X0091347Y0023034D01*
X0091420Y0022904D01*
X0091489Y0022771D01*
X0091555Y0022637D01*
X0091617Y0022501D01*
X0091675Y0022363D01*
X0091730Y0022224D01*
X0091781Y0022084D01*
X0091828Y0021942D01*
X0091871Y0021799D01*
X0091911Y0021655D01*
X0091946Y0021509D01*
X0091978Y0021363D01*
X0092006Y0021217D01*
X0092030Y0021069D01*
X0092050Y0020921D01*
X0092066Y0020772D01*
X0092078Y0020623D01*
X0092086Y0020474D01*
X0092090Y0020325D01*
X0092090Y0020175D01*
X0092086Y0020026D01*
X0092078Y0019877D01*
X0092066Y0019728D01*
X0092050Y0019579D01*
X0092030Y0019431D01*
X0092006Y0019283D01*
X0091978Y0019137D01*
X0091946Y0018991D01*
X0091911Y0018845D01*
X0091871Y0018701D01*
X0091828Y0018558D01*
X0091781Y0018416D01*
X0091730Y0018276D01*
X0091675Y0018137D01*
X0091617Y0017999D01*
X0091555Y0017863D01*
X0091489Y0017729D01*
X0091420Y0017596D01*
X0091347Y0017466D01*
X0091271Y0017337D01*
X0091192Y0017211D01*
X0091109Y0017086D01*
X0091022Y0016964D01*
X0090933Y0016845D01*
X0090840Y0016727D01*
X0090745Y0016612D01*
X0090646Y0016500D01*
X0090544Y0016391D01*
X0090439Y0016284D01*
X0090332Y0016180D01*
X0090222Y0016079D01*
X0090109Y0015981D01*
X0089994Y0015886D01*
X0089876Y0015794D01*
X0089755Y0015706D01*
X0089633Y0015620D01*
X0089508Y0015538D01*
X0089381Y0015460D01*
X0089252Y0015384D01*
X0089121Y0015312D01*
X0088988Y0015244D01*
X0088853Y0015179D01*
X0088717Y0015118D01*
X0088579Y0015061D01*
X0088439Y0015007D01*
X0088298Y0014957D01*
X0088156Y0014911D01*
X0088013Y0014869D01*
X0087868Y0014830D01*
X0087723Y0014795D01*
X0087577Y0014765D01*
X0087430Y0014738D01*
X0087282Y0014715D01*
X0087134Y0014696D01*
X0086985Y0014681D01*
X0086836Y0014670D01*
X0086687Y0014663D01*
X0086537Y0014660D01*
X0086388Y0014661D01*
X0086239Y0014666D01*
X0086089Y0014675D01*
X0085940Y0014688D01*
X0085792Y0014705D01*
X0085644Y0014726D01*
X0085497Y0014751D01*
X0085350Y0014780D01*
X0085204Y0014812D01*
X0085059Y0014849D01*
X0084915Y0014889D01*
X0084773Y0014934D01*
X0084631Y0014982D01*
X0084491Y0015034D01*
X0084352Y0015089D01*
X0084215Y0015148D01*
X0084079Y0015211D01*
X0083946Y0015278D01*
X0083814Y0015348D01*
X0083683Y0015421D01*
X0083555Y0015498D01*
X0083429Y0015579D01*
X0083306Y0015663D01*
X0083184Y0015750D01*
X0083065Y0015840D01*
X0082948Y0015933D01*
X0082834Y0016030D01*
X0082723Y0016129D01*
X0082614Y0016232D01*
X0082508Y0016337D01*
X0082405Y0016445D01*
X0082304Y0016556D01*
X0082207Y0016670D01*
X0082113Y0016786D01*
X0082022Y0016904D01*
X0081934Y0017025D01*
X0081849Y0017148D01*
X0081768Y0017274D01*
X0081690Y0017401D01*
X0081616Y0017531D01*
X0081545Y0017662D01*
X0081478Y0017796D01*
X0081414Y0017931D01*
X0081354Y0018068D01*
X0081297Y0018206D01*
X0081244Y0018346D01*
X0081195Y0018487D01*
X0081150Y0018630D01*
X0081109Y0018773D01*
X0081071Y0018918D01*
X0081037Y0019063D01*
X0081008Y0019210D01*
X0080982Y0019357D01*
X0080960Y0019505D01*
X0080942Y0019653D01*
X0080928Y0019802D01*
X0080918Y0019951D01*
X0080912Y0020101D01*
X0080910Y0020250D01*
X0079000Y0061500D02*
X0079000Y0131500D01*
X0067809Y0123075D02*
X0067809Y0069925D01*
X0066825Y0068941D01*
X0013675Y0068941D01*
X0012691Y0069925D01*
X0012691Y0121106D01*
X0015644Y0124059D01*
X0066825Y0124059D01*
X0067809Y0123075D01*
X0031500Y0176500D02*
X0011500Y0176500D01*
X0005250Y0124000D02*
X0005252Y0124070D01*
X0005258Y0124140D01*
X0005268Y0124209D01*
X0005281Y0124278D01*
X0005299Y0124346D01*
X0005320Y0124413D01*
X0005345Y0124478D01*
X0005374Y0124542D01*
X0005406Y0124605D01*
X0005442Y0124665D01*
X0005481Y0124723D01*
X0005523Y0124779D01*
X0005568Y0124833D01*
X0005616Y0124884D01*
X0005667Y0124932D01*
X0005721Y0124977D01*
X0005777Y0125019D01*
X0005835Y0125058D01*
X0005895Y0125094D01*
X0005958Y0125126D01*
X0006022Y0125155D01*
X0006087Y0125180D01*
X0006154Y0125201D01*
X0006222Y0125219D01*
X0006291Y0125232D01*
X0006360Y0125242D01*
X0006430Y0125248D01*
X0006500Y0125250D01*
X0006570Y0125248D01*
X0006640Y0125242D01*
X0006709Y0125232D01*
X0006778Y0125219D01*
X0006846Y0125201D01*
X0006913Y0125180D01*
X0006978Y0125155D01*
X0007042Y0125126D01*
X0007105Y0125094D01*
X0007165Y0125058D01*
X0007223Y0125019D01*
X0007279Y0124977D01*
X0007333Y0124932D01*
X0007384Y0124884D01*
X0007432Y0124833D01*
X0007477Y0124779D01*
X0007519Y0124723D01*
X0007558Y0124665D01*
X0007594Y0124605D01*
X0007626Y0124542D01*
X0007655Y0124478D01*
X0007680Y0124413D01*
X0007701Y0124346D01*
X0007719Y0124278D01*
X0007732Y0124209D01*
X0007742Y0124140D01*
X0007748Y0124070D01*
X0007750Y0124000D01*
X0007748Y0123930D01*
X0007742Y0123860D01*
X0007732Y0123791D01*
X0007719Y0123722D01*
X0007701Y0123654D01*
X0007680Y0123587D01*
X0007655Y0123522D01*
X0007626Y0123458D01*
X0007594Y0123395D01*
X0007558Y0123335D01*
X0007519Y0123277D01*
X0007477Y0123221D01*
X0007432Y0123167D01*
X0007384Y0123116D01*
X0007333Y0123068D01*
X0007279Y0123023D01*
X0007223Y0122981D01*
X0007165Y0122942D01*
X0007105Y0122906D01*
X0007042Y0122874D01*
X0006978Y0122845D01*
X0006913Y0122820D01*
X0006846Y0122799D01*
X0006778Y0122781D01*
X0006709Y0122768D01*
X0006640Y0122758D01*
X0006570Y0122752D01*
X0006500Y0122750D01*
X0006430Y0122752D01*
X0006360Y0122758D01*
X0006291Y0122768D01*
X0006222Y0122781D01*
X0006154Y0122799D01*
X0006087Y0122820D01*
X0006022Y0122845D01*
X0005958Y0122874D01*
X0005895Y0122906D01*
X0005835Y0122942D01*
X0005777Y0122981D01*
X0005721Y0123023D01*
X0005667Y0123068D01*
X0005616Y0123116D01*
X0005568Y0123167D01*
X0005523Y0123221D01*
X0005481Y0123277D01*
X0005442Y0123335D01*
X0005406Y0123395D01*
X0005374Y0123458D01*
X0005345Y0123522D01*
X0005320Y0123587D01*
X0005299Y0123654D01*
X0005281Y0123722D01*
X0005268Y0123791D01*
X0005258Y0123860D01*
X0005252Y0123930D01*
X0005250Y0124000D01*
X0015644Y0120122D02*
X0015646Y0120184D01*
X0015652Y0120247D01*
X0015662Y0120308D01*
X0015676Y0120369D01*
X0015693Y0120429D01*
X0015714Y0120488D01*
X0015740Y0120545D01*
X0015768Y0120600D01*
X0015800Y0120654D01*
X0015836Y0120705D01*
X0015874Y0120755D01*
X0015916Y0120801D01*
X0015960Y0120845D01*
X0016008Y0120886D01*
X0016057Y0120924D01*
X0016109Y0120958D01*
X0016163Y0120989D01*
X0016219Y0121017D01*
X0016277Y0121041D01*
X0016336Y0121062D01*
X0016396Y0121078D01*
X0016457Y0121091D01*
X0016519Y0121100D01*
X0016581Y0121105D01*
X0016644Y0121106D01*
X0016706Y0121103D01*
X0016768Y0121096D01*
X0016830Y0121085D01*
X0016890Y0121070D01*
X0016950Y0121052D01*
X0017008Y0121030D01*
X0017065Y0121004D01*
X0017120Y0120974D01*
X0017173Y0120941D01*
X0017224Y0120905D01*
X0017272Y0120866D01*
X0017318Y0120823D01*
X0017361Y0120778D01*
X0017401Y0120730D01*
X0017438Y0120680D01*
X0017472Y0120627D01*
X0017503Y0120573D01*
X0017529Y0120517D01*
X0017553Y0120459D01*
X0017572Y0120399D01*
X0017588Y0120339D01*
X0017600Y0120277D01*
X0017608Y0120216D01*
X0017612Y0120153D01*
X0017612Y0120091D01*
X0017608Y0120028D01*
X0017600Y0119967D01*
X0017588Y0119905D01*
X0017572Y0119845D01*
X0017553Y0119785D01*
X0017529Y0119727D01*
X0017503Y0119671D01*
X0017472Y0119617D01*
X0017438Y0119564D01*
X0017401Y0119514D01*
X0017361Y0119466D01*
X0017318Y0119421D01*
X0017272Y0119378D01*
X0017224Y0119339D01*
X0017173Y0119303D01*
X0017120Y0119270D01*
X0017065Y0119240D01*
X0017008Y0119214D01*
X0016950Y0119192D01*
X0016890Y0119174D01*
X0016830Y0119159D01*
X0016768Y0119148D01*
X0016706Y0119141D01*
X0016644Y0119138D01*
X0016581Y0119139D01*
X0016519Y0119144D01*
X0016457Y0119153D01*
X0016396Y0119166D01*
X0016336Y0119182D01*
X0016277Y0119203D01*
X0016219Y0119227D01*
X0016163Y0119255D01*
X0016109Y0119286D01*
X0016057Y0119320D01*
X0016008Y0119358D01*
X0015960Y0119399D01*
X0015916Y0119443D01*
X0015874Y0119489D01*
X0015836Y0119539D01*
X0015800Y0119590D01*
X0015768Y0119644D01*
X0015740Y0119699D01*
X0015714Y0119756D01*
X0015693Y0119815D01*
X0015676Y0119875D01*
X0015662Y0119936D01*
X0015652Y0119997D01*
X0015646Y0120060D01*
X0015644Y0120122D01*
X0010250Y0056500D02*
X0010250Y0036500D01*
X0016500Y0009000D02*
X0016502Y0009070D01*
X0016508Y0009140D01*
X0016518Y0009209D01*
X0016531Y0009278D01*
X0016549Y0009346D01*
X0016570Y0009413D01*
X0016595Y0009478D01*
X0016624Y0009542D01*
X0016656Y0009605D01*
X0016692Y0009665D01*
X0016731Y0009723D01*
X0016773Y0009779D01*
X0016818Y0009833D01*
X0016866Y0009884D01*
X0016917Y0009932D01*
X0016971Y0009977D01*
X0017027Y0010019D01*
X0017085Y0010058D01*
X0017145Y0010094D01*
X0017208Y0010126D01*
X0017272Y0010155D01*
X0017337Y0010180D01*
X0017404Y0010201D01*
X0017472Y0010219D01*
X0017541Y0010232D01*
X0017610Y0010242D01*
X0017680Y0010248D01*
X0017750Y0010250D01*
X0017820Y0010248D01*
X0017890Y0010242D01*
X0017959Y0010232D01*
X0018028Y0010219D01*
X0018096Y0010201D01*
X0018163Y0010180D01*
X0018228Y0010155D01*
X0018292Y0010126D01*
X0018355Y0010094D01*
X0018415Y0010058D01*
X0018473Y0010019D01*
X0018529Y0009977D01*
X0018583Y0009932D01*
X0018634Y0009884D01*
X0018682Y0009833D01*
X0018727Y0009779D01*
X0018769Y0009723D01*
X0018808Y0009665D01*
X0018844Y0009605D01*
X0018876Y0009542D01*
X0018905Y0009478D01*
X0018930Y0009413D01*
X0018951Y0009346D01*
X0018969Y0009278D01*
X0018982Y0009209D01*
X0018992Y0009140D01*
X0018998Y0009070D01*
X0019000Y0009000D01*
X0018998Y0008930D01*
X0018992Y0008860D01*
X0018982Y0008791D01*
X0018969Y0008722D01*
X0018951Y0008654D01*
X0018930Y0008587D01*
X0018905Y0008522D01*
X0018876Y0008458D01*
X0018844Y0008395D01*
X0018808Y0008335D01*
X0018769Y0008277D01*
X0018727Y0008221D01*
X0018682Y0008167D01*
X0018634Y0008116D01*
X0018583Y0008068D01*
X0018529Y0008023D01*
X0018473Y0007981D01*
X0018415Y0007942D01*
X0018355Y0007906D01*
X0018292Y0007874D01*
X0018228Y0007845D01*
X0018163Y0007820D01*
X0018096Y0007799D01*
X0018028Y0007781D01*
X0017959Y0007768D01*
X0017890Y0007758D01*
X0017820Y0007752D01*
X0017750Y0007750D01*
X0017680Y0007752D01*
X0017610Y0007758D01*
X0017541Y0007768D01*
X0017472Y0007781D01*
X0017404Y0007799D01*
X0017337Y0007820D01*
X0017272Y0007845D01*
X0017208Y0007874D01*
X0017145Y0007906D01*
X0017085Y0007942D01*
X0017027Y0007981D01*
X0016971Y0008023D01*
X0016917Y0008068D01*
X0016866Y0008116D01*
X0016818Y0008167D01*
X0016773Y0008221D01*
X0016731Y0008277D01*
X0016692Y0008335D01*
X0016656Y0008395D01*
X0016624Y0008458D01*
X0016595Y0008522D01*
X0016570Y0008587D01*
X0016549Y0008654D01*
X0016531Y0008722D01*
X0016518Y0008791D01*
X0016508Y0008860D01*
X0016502Y0008930D01*
X0016500Y0009000D01*
D13*
X0008800Y0041700D02*
X0008800Y0044769D01*
X0008800Y0043235D02*
X0004196Y0043235D01*
X0005731Y0041700D01*
X0004963Y0046304D02*
X0004196Y0047071D01*
X0004196Y0048606D01*
X0004963Y0049373D01*
X0008033Y0046304D01*
X0008800Y0047071D01*
X0008800Y0048606D01*
X0008033Y0049373D01*
X0004963Y0049373D01*
X0004196Y0050908D02*
X0008800Y0050908D01*
X0007265Y0050908D02*
X0008800Y0053210D01*
X0007265Y0050908D02*
X0005731Y0053210D01*
X0004963Y0046304D02*
X0008033Y0046304D01*
X0046985Y0146700D02*
X0048519Y0148235D01*
X0048519Y0151304D01*
X0050054Y0149002D02*
X0050821Y0149769D01*
X0052356Y0149769D01*
X0053123Y0149002D01*
X0053123Y0148235D01*
X0050054Y0148235D01*
X0050054Y0149002D02*
X0050054Y0147467D01*
X0050821Y0146700D01*
X0052356Y0146700D01*
X0054658Y0146700D02*
X0054658Y0149769D01*
X0054658Y0148235D02*
X0056192Y0149769D01*
X0056960Y0149769D01*
X0058494Y0149002D02*
X0059262Y0149769D01*
X0061564Y0149769D01*
X0063098Y0149769D02*
X0063866Y0149769D01*
X0063866Y0146700D01*
X0064633Y0146700D02*
X0063098Y0146700D01*
X0061564Y0147467D02*
X0060796Y0148235D01*
X0059262Y0148235D01*
X0058494Y0149002D01*
X0058494Y0146700D02*
X0060796Y0146700D01*
X0061564Y0147467D01*
X0063866Y0151304D02*
X0063866Y0152071D01*
X0066935Y0149769D02*
X0066168Y0149002D01*
X0066168Y0147467D01*
X0066935Y0146700D01*
X0068470Y0146700D01*
X0069237Y0147467D01*
X0069237Y0149002D01*
X0068470Y0149769D01*
X0066935Y0149769D01*
X0070772Y0149769D02*
X0070772Y0146700D01*
X0073841Y0146700D02*
X0073841Y0149002D01*
X0073074Y0149769D01*
X0070772Y0149769D01*
X0079979Y0149769D02*
X0081514Y0151304D01*
X0081514Y0146700D01*
X0079979Y0146700D02*
X0083049Y0146700D01*
X0084583Y0146700D02*
X0084583Y0147467D01*
X0085351Y0147467D01*
X0085351Y0146700D01*
X0084583Y0146700D01*
X0086885Y0147467D02*
X0089955Y0150537D01*
X0089955Y0147467D01*
X0089187Y0146700D01*
X0087653Y0146700D01*
X0086885Y0147467D01*
X0086885Y0150537D01*
X0087653Y0151304D01*
X0089187Y0151304D01*
X0089955Y0150537D01*
X0110446Y0152652D02*
X0110446Y0153419D01*
X0115050Y0153419D01*
X0115050Y0152652D02*
X0115050Y0154187D01*
X0114283Y0155721D02*
X0115050Y0156489D01*
X0115050Y0158023D01*
X0114283Y0158791D01*
X0112748Y0158791D01*
X0112748Y0157256D01*
X0111213Y0158791D02*
X0110446Y0158023D01*
X0110446Y0156489D01*
X0111213Y0155721D01*
X0114283Y0155721D01*
X0115050Y0151117D02*
X0112748Y0151117D01*
X0111981Y0150350D01*
X0111981Y0148815D01*
X0113515Y0148815D02*
X0113515Y0151117D01*
X0115050Y0151117D02*
X0115050Y0148815D01*
X0114283Y0148048D01*
X0113515Y0148815D01*
X0111981Y0146513D02*
X0111981Y0144979D01*
X0111213Y0145746D02*
X0114283Y0145746D01*
X0115050Y0146513D01*
X0113515Y0143444D02*
X0113515Y0140375D01*
X0112748Y0140375D02*
X0111981Y0141142D01*
X0111981Y0142677D01*
X0112748Y0143444D01*
X0113515Y0143444D01*
X0115050Y0142677D02*
X0115050Y0141142D01*
X0114283Y0140375D01*
X0112748Y0140375D01*
X0110446Y0138840D02*
X0111981Y0137306D01*
X0110446Y0135771D01*
X0115050Y0135771D01*
X0115050Y0138840D02*
X0110446Y0138840D01*
X0112748Y0129632D02*
X0111981Y0128865D01*
X0112748Y0128098D01*
X0115050Y0128098D01*
X0115050Y0129632D02*
X0112748Y0129632D01*
X0112748Y0128098D02*
X0111981Y0127330D01*
X0111981Y0126563D01*
X0115050Y0126563D01*
X0114283Y0125028D02*
X0112748Y0125028D01*
X0111981Y0124261D01*
X0111981Y0122727D01*
X0112748Y0121959D01*
X0114283Y0121959D01*
X0115050Y0122727D01*
X0115050Y0124261D01*
X0114283Y0125028D01*
X0111981Y0120425D02*
X0111981Y0119657D01*
X0113515Y0118123D01*
X0111981Y0118123D02*
X0115050Y0118123D01*
X0115050Y0115821D02*
X0111213Y0115821D01*
X0110446Y0116588D01*
X0112748Y0116588D02*
X0112748Y0115053D01*
X0112748Y0108915D02*
X0111981Y0108147D01*
X0111981Y0105845D01*
X0115050Y0105845D01*
X0115050Y0104311D02*
X0115050Y0102009D01*
X0114283Y0101242D01*
X0112748Y0101242D01*
X0111981Y0102009D01*
X0111981Y0104311D01*
X0115817Y0104311D01*
X0116585Y0103543D01*
X0116585Y0102776D01*
X0115050Y0099707D02*
X0115050Y0098172D01*
X0115050Y0098940D02*
X0111981Y0098940D01*
X0111981Y0098172D01*
X0111981Y0096638D02*
X0111981Y0094336D01*
X0112748Y0093568D01*
X0113515Y0094336D01*
X0113515Y0095870D01*
X0114283Y0096638D01*
X0115050Y0095870D01*
X0115050Y0093568D01*
X0113515Y0092034D02*
X0113515Y0088964D01*
X0112748Y0088964D02*
X0111981Y0089732D01*
X0111981Y0091266D01*
X0112748Y0092034D01*
X0113515Y0092034D01*
X0115050Y0091266D02*
X0115050Y0089732D01*
X0114283Y0088964D01*
X0112748Y0088964D01*
X0111981Y0087430D02*
X0111981Y0085128D01*
X0112748Y0084360D01*
X0114283Y0084360D01*
X0115050Y0085128D01*
X0115050Y0087430D01*
X0110446Y0087430D01*
X0111981Y0078222D02*
X0115817Y0078222D01*
X0116585Y0077455D01*
X0116585Y0076687D01*
X0115050Y0075920D02*
X0114283Y0075153D01*
X0111981Y0075153D01*
X0112748Y0073618D02*
X0111981Y0072851D01*
X0111981Y0070549D01*
X0110446Y0070549D02*
X0115050Y0070549D01*
X0115050Y0072851D01*
X0114283Y0073618D01*
X0112748Y0073618D01*
X0115050Y0075920D02*
X0115050Y0078222D01*
X0121981Y0078420D02*
X0125050Y0078420D01*
X0123515Y0078420D02*
X0121981Y0079955D01*
X0121981Y0080722D01*
X0122748Y0082257D02*
X0121981Y0083024D01*
X0121981Y0084559D01*
X0122748Y0085326D01*
X0123515Y0085326D01*
X0123515Y0082257D01*
X0122748Y0082257D02*
X0124283Y0082257D01*
X0125050Y0083024D01*
X0125050Y0084559D01*
X0124283Y0086860D02*
X0123515Y0087628D01*
X0123515Y0089930D01*
X0122748Y0089930D02*
X0125050Y0089930D01*
X0125050Y0087628D01*
X0124283Y0086860D01*
X0121981Y0087628D02*
X0121981Y0089162D01*
X0122748Y0089930D01*
X0121981Y0091464D02*
X0121981Y0092999D01*
X0121213Y0092232D02*
X0124283Y0092232D01*
X0125050Y0092999D01*
X0124283Y0094534D02*
X0125050Y0095301D01*
X0125050Y0096836D01*
X0123515Y0097603D02*
X0123515Y0094534D01*
X0122748Y0094534D02*
X0121981Y0095301D01*
X0121981Y0096836D01*
X0122748Y0097603D01*
X0123515Y0097603D01*
X0122748Y0099138D02*
X0121981Y0099905D01*
X0121981Y0102207D01*
X0120446Y0102207D02*
X0125050Y0102207D01*
X0125050Y0099905D01*
X0124283Y0099138D01*
X0122748Y0099138D01*
X0122748Y0094534D02*
X0124283Y0094534D01*
X0125050Y0108345D02*
X0120446Y0108345D01*
X0121981Y0108345D02*
X0121981Y0110647D01*
X0122748Y0111415D01*
X0124283Y0111415D01*
X0125050Y0110647D01*
X0125050Y0108345D01*
X0124283Y0112949D02*
X0121981Y0112949D01*
X0124283Y0112949D02*
X0125050Y0113717D01*
X0125050Y0116019D01*
X0125817Y0116019D02*
X0126585Y0115251D01*
X0126585Y0114484D01*
X0125817Y0116019D02*
X0121981Y0116019D01*
X0123515Y0122157D02*
X0123515Y0124459D01*
X0122748Y0125227D01*
X0121213Y0125227D01*
X0120446Y0124459D01*
X0120446Y0122157D01*
X0125050Y0122157D01*
X0123515Y0123692D02*
X0125050Y0125227D01*
X0125050Y0126761D02*
X0125050Y0129063D01*
X0124283Y0129830D01*
X0123515Y0129830D01*
X0122748Y0129063D01*
X0122748Y0126761D01*
X0125050Y0126761D02*
X0120446Y0126761D01*
X0120446Y0129063D01*
X0121213Y0129830D01*
X0121981Y0129830D01*
X0122748Y0129063D01*
X0121981Y0131365D02*
X0122748Y0132132D01*
X0122748Y0133667D01*
X0123515Y0134434D01*
X0124283Y0134434D01*
X0125050Y0133667D01*
X0125050Y0132132D01*
X0124283Y0131365D01*
X0121981Y0131365D02*
X0121213Y0131365D01*
X0120446Y0132132D01*
X0120446Y0133667D01*
X0121213Y0134434D01*
X0121213Y0135969D02*
X0120446Y0136736D01*
X0120446Y0138271D01*
X0121213Y0139038D01*
X0124283Y0139038D02*
X0125050Y0138271D01*
X0125050Y0136736D01*
X0124283Y0135969D01*
X0121213Y0135969D01*
X0121981Y0145177D02*
X0121981Y0145944D01*
X0125050Y0145944D01*
X0125050Y0145177D02*
X0125050Y0146711D01*
X0125050Y0148246D02*
X0121981Y0148246D01*
X0121981Y0150548D01*
X0122748Y0151315D01*
X0125050Y0151315D01*
X0125050Y0157454D02*
X0121981Y0160523D01*
X0121213Y0160523D01*
X0120446Y0159756D01*
X0120446Y0158221D01*
X0121213Y0157454D01*
X0125050Y0157454D02*
X0125050Y0160523D01*
X0124283Y0162058D02*
X0125050Y0162825D01*
X0125050Y0164360D01*
X0124283Y0165127D01*
X0121213Y0165127D01*
X0124283Y0162058D01*
X0121213Y0162058D01*
X0120446Y0162825D01*
X0120446Y0164360D01*
X0121213Y0165127D01*
X0121213Y0166662D02*
X0120446Y0167429D01*
X0120446Y0168964D01*
X0121213Y0169731D01*
X0121981Y0169731D01*
X0125050Y0166662D01*
X0125050Y0169731D01*
X0124283Y0171266D02*
X0125050Y0172033D01*
X0125050Y0173568D01*
X0124283Y0174335D01*
X0123515Y0174335D01*
X0122748Y0173568D01*
X0122748Y0172800D01*
X0122748Y0173568D02*
X0121981Y0174335D01*
X0121213Y0174335D01*
X0120446Y0173568D01*
X0120446Y0172033D01*
X0121213Y0171266D01*
X0115050Y0169533D02*
X0111981Y0169533D01*
X0113515Y0169533D02*
X0111981Y0171068D01*
X0111981Y0171835D01*
X0111213Y0173370D02*
X0110446Y0174137D01*
X0110446Y0175672D01*
X0111213Y0176439D01*
X0111981Y0176439D01*
X0115050Y0173370D01*
X0115050Y0176439D01*
X0115050Y0167998D02*
X0112748Y0167998D01*
X0111981Y0167231D01*
X0111981Y0165696D01*
X0113515Y0165696D02*
X0113515Y0167998D01*
X0115050Y0167998D02*
X0115050Y0165696D01*
X0114283Y0164929D01*
X0113515Y0165696D01*
X0113515Y0163395D02*
X0113515Y0160325D01*
X0112748Y0160325D02*
X0111981Y0161093D01*
X0111981Y0162627D01*
X0112748Y0163395D01*
X0113515Y0163395D01*
X0115050Y0162627D02*
X0115050Y0161093D01*
X0114283Y0160325D01*
X0112748Y0160325D01*
X0119679Y0145944D02*
X0120446Y0145944D01*
X0115050Y0108915D02*
X0112748Y0108915D01*
X0110446Y0098940D02*
X0109679Y0098940D01*
X0121981Y0076885D02*
X0121981Y0074583D01*
X0122748Y0073816D01*
X0124283Y0073816D01*
X0125050Y0074583D01*
X0125050Y0076885D01*
X0123515Y0067677D02*
X0123515Y0064608D01*
X0122748Y0064608D02*
X0121981Y0065375D01*
X0121981Y0066910D01*
X0122748Y0067677D01*
X0123515Y0067677D01*
X0125050Y0066910D02*
X0125050Y0065375D01*
X0124283Y0064608D01*
X0122748Y0064608D01*
X0121981Y0063074D02*
X0121981Y0062306D01*
X0123515Y0060772D01*
X0121981Y0060772D02*
X0125050Y0060772D01*
X0125050Y0059237D02*
X0125050Y0056935D01*
X0124283Y0056168D01*
X0123515Y0056935D01*
X0123515Y0059237D01*
X0122748Y0059237D02*
X0125050Y0059237D01*
X0122748Y0059237D02*
X0121981Y0058470D01*
X0121981Y0056935D01*
X0121981Y0054633D02*
X0124283Y0054633D01*
X0125050Y0053866D01*
X0124283Y0053098D01*
X0125050Y0052331D01*
X0124283Y0051564D01*
X0121981Y0051564D01*
X0122748Y0050029D02*
X0121981Y0049262D01*
X0122748Y0048494D01*
X0125050Y0048494D01*
X0125050Y0046960D02*
X0121981Y0046960D01*
X0121981Y0047727D01*
X0122748Y0048494D01*
X0122748Y0050029D02*
X0125050Y0050029D01*
X0121981Y0045425D02*
X0121981Y0044658D01*
X0123515Y0043123D01*
X0121981Y0043123D02*
X0125050Y0043123D01*
X0125050Y0041589D02*
X0125050Y0040054D01*
X0125050Y0040821D02*
X0121981Y0040821D01*
X0121981Y0040054D01*
X0120446Y0040821D02*
X0119679Y0040821D01*
X0120446Y0038519D02*
X0120446Y0035450D01*
X0125050Y0035450D01*
X0122748Y0035450D02*
X0122748Y0036985D01*
X0116585Y0045227D02*
X0111981Y0045227D01*
X0111981Y0047529D01*
X0112748Y0048296D01*
X0114283Y0048296D01*
X0115050Y0047529D01*
X0115050Y0045227D01*
X0114283Y0043692D02*
X0113515Y0042925D01*
X0113515Y0041391D01*
X0112748Y0040623D01*
X0111981Y0041391D01*
X0111981Y0043692D01*
X0114283Y0043692D02*
X0115050Y0042925D01*
X0115050Y0040623D01*
X0115050Y0039089D02*
X0112748Y0039089D01*
X0111981Y0038321D01*
X0111981Y0036019D01*
X0115050Y0036019D01*
X0115050Y0034485D02*
X0115050Y0032950D01*
X0115050Y0033717D02*
X0110446Y0033717D01*
X0110446Y0032950D02*
X0110446Y0034485D01*
X0111981Y0049831D02*
X0111981Y0050598D01*
X0115050Y0050598D01*
X0115050Y0049831D02*
X0115050Y0051366D01*
X0115050Y0052900D02*
X0111981Y0052900D01*
X0113515Y0052900D02*
X0111981Y0054435D01*
X0111981Y0055202D01*
X0112748Y0056737D02*
X0111981Y0057504D01*
X0111981Y0059039D01*
X0112748Y0059806D01*
X0113515Y0059806D01*
X0113515Y0056737D01*
X0112748Y0056737D02*
X0114283Y0056737D01*
X0115050Y0057504D01*
X0115050Y0059039D01*
X0114283Y0061341D02*
X0112748Y0061341D01*
X0111981Y0062108D01*
X0111981Y0064410D01*
X0110446Y0064410D02*
X0115050Y0064410D01*
X0115050Y0062108D01*
X0114283Y0061341D01*
X0110446Y0050598D02*
X0109679Y0050598D01*
X0046985Y0146700D02*
X0045450Y0148235D01*
X0045450Y0151304D01*
X0037848Y0175098D02*
X0037848Y0178000D01*
X0032652Y0178000D02*
X0032652Y0175000D01*
X0035280Y0185732D02*
X0007720Y0185732D01*
X0007720Y0202268D01*
X0035280Y0202268D01*
X0035280Y0185732D01*
X0010348Y0178000D02*
X0010348Y0175098D01*
X0005152Y0175000D02*
X0005152Y0178000D01*
X0005735Y0202467D02*
X0005735Y0205537D01*
X0004200Y0204002D02*
X0007269Y0204002D01*
D14*
X0014150Y0202900D02*
X0016619Y0202900D01*
X0015384Y0202900D02*
X0015384Y0206603D01*
X0014150Y0205369D01*
X0017833Y0205986D02*
X0017833Y0203517D01*
X0020302Y0205986D01*
X0020302Y0203517D01*
X0019685Y0202900D01*
X0018450Y0202900D01*
X0017833Y0203517D01*
X0017833Y0205986D02*
X0018450Y0206603D01*
X0019685Y0206603D01*
X0020302Y0205986D01*
X0021516Y0205986D02*
X0022133Y0206603D01*
X0023368Y0206603D01*
X0023985Y0205986D01*
X0021516Y0203517D01*
X0022133Y0202900D01*
X0023368Y0202900D01*
X0023985Y0203517D01*
X0023985Y0205986D01*
X0025199Y0205369D02*
X0025199Y0203517D01*
X0025817Y0202900D01*
X0027668Y0202900D01*
X0027668Y0205369D01*
X0028883Y0204752D02*
X0030117Y0204752D01*
X0028883Y0206603D02*
X0031351Y0206603D01*
X0028883Y0206603D02*
X0028883Y0202900D01*
X0021516Y0203517D02*
X0021516Y0205986D01*
X0021218Y0182603D02*
X0022452Y0182603D01*
X0023069Y0181986D01*
X0020601Y0179517D01*
X0021218Y0178900D01*
X0022452Y0178900D01*
X0023069Y0179517D01*
X0023069Y0181986D01*
X0024284Y0181369D02*
X0026135Y0181369D01*
X0026752Y0180752D01*
X0026752Y0178900D01*
X0027967Y0178900D02*
X0027967Y0182603D01*
X0030436Y0182603D01*
X0029201Y0180752D02*
X0027967Y0180752D01*
X0024284Y0181369D02*
X0024284Y0178900D01*
X0020601Y0179517D02*
X0020601Y0181986D01*
X0021218Y0182603D01*
X0019386Y0181986D02*
X0019386Y0179517D01*
X0018769Y0178900D01*
X0017535Y0178900D01*
X0016917Y0179517D01*
X0019386Y0181986D01*
X0018769Y0182603D01*
X0017535Y0182603D01*
X0016917Y0181986D01*
X0016917Y0179517D01*
X0015703Y0178900D02*
X0013234Y0178900D01*
X0014469Y0178900D02*
X0014469Y0182603D01*
X0013234Y0181369D01*
X0011166Y0146486D02*
X0008030Y0143350D01*
X0011166Y0146486D01*
X0009598Y0146486D02*
X0009598Y0143350D01*
X0009598Y0146486D01*
X0008030Y0146486D02*
X0011166Y0143350D01*
X0008030Y0146486D01*
X0008030Y0144918D02*
X0011166Y0144918D01*
X0008030Y0144918D01*
X0007900Y0140353D02*
X0009752Y0140353D01*
X0010369Y0139736D01*
X0010369Y0138502D01*
X0009752Y0137884D01*
X0007900Y0137884D01*
X0007900Y0136650D02*
X0007900Y0140353D01*
X0009134Y0137884D02*
X0010369Y0136650D01*
X0011583Y0136650D02*
X0014052Y0136650D01*
X0015266Y0137267D02*
X0015883Y0136650D01*
X0017118Y0136650D01*
X0017735Y0137267D01*
X0017735Y0138502D01*
X0016501Y0138502D01*
X0017735Y0139736D02*
X0017118Y0140353D01*
X0015883Y0140353D01*
X0015266Y0139736D01*
X0015266Y0137267D01*
X0014052Y0140353D02*
X0011583Y0140353D01*
X0011583Y0136650D01*
X0011583Y0138502D02*
X0012818Y0138502D01*
X0022633Y0139736D02*
X0023250Y0140353D01*
X0024484Y0140353D01*
X0025101Y0139736D01*
X0025101Y0139119D01*
X0024484Y0138502D01*
X0025101Y0137884D01*
X0025101Y0137267D01*
X0024484Y0136650D01*
X0023250Y0136650D01*
X0022633Y0137267D01*
X0023867Y0138502D02*
X0024484Y0138502D01*
X0026316Y0137267D02*
X0026316Y0136650D01*
X0026933Y0136650D01*
X0026933Y0137267D01*
X0026316Y0137267D01*
X0028157Y0137267D02*
X0028774Y0136650D01*
X0030009Y0136650D01*
X0030626Y0137267D01*
X0030626Y0137884D01*
X0030009Y0138502D01*
X0029392Y0138502D01*
X0030009Y0138502D02*
X0030626Y0139119D01*
X0030626Y0139736D01*
X0030009Y0140353D01*
X0028774Y0140353D01*
X0028157Y0139736D01*
X0031840Y0140353D02*
X0031840Y0137884D01*
X0033075Y0136650D01*
X0034309Y0137884D01*
X0034309Y0140353D01*
X0035714Y0108877D02*
X0033863Y0107026D01*
X0036331Y0107026D01*
X0037546Y0108260D02*
X0038163Y0108877D01*
X0039397Y0108877D01*
X0040014Y0108260D01*
X0037546Y0105791D01*
X0038163Y0105174D01*
X0039397Y0105174D01*
X0040014Y0105791D01*
X0040014Y0108260D01*
X0041229Y0108877D02*
X0043698Y0108877D01*
X0042463Y0108877D02*
X0042463Y0105174D01*
X0044912Y0105174D02*
X0047381Y0105174D01*
X0046146Y0105174D02*
X0046146Y0108877D01*
X0044912Y0107643D01*
X0048595Y0108260D02*
X0048595Y0105791D01*
X0051064Y0108260D01*
X0051064Y0105791D01*
X0050447Y0105174D01*
X0049212Y0105174D01*
X0048595Y0105791D01*
X0048595Y0108260D02*
X0049212Y0108877D01*
X0050447Y0108877D01*
X0051064Y0108260D01*
X0052278Y0108260D02*
X0052278Y0105791D01*
X0054747Y0108260D01*
X0054747Y0105791D01*
X0054130Y0105174D01*
X0052895Y0105174D01*
X0052278Y0105791D01*
X0052278Y0108260D02*
X0052895Y0108877D01*
X0054130Y0108877D01*
X0054747Y0108260D01*
X0055961Y0108260D02*
X0055961Y0105791D01*
X0056579Y0105174D01*
X0057813Y0105174D01*
X0058430Y0105791D01*
X0059645Y0107026D02*
X0062113Y0107026D01*
X0061496Y0108877D02*
X0061496Y0105174D01*
X0059645Y0107026D02*
X0061496Y0108877D01*
X0058430Y0108260D02*
X0057813Y0108877D01*
X0056579Y0108877D01*
X0055961Y0108260D01*
X0051414Y0089788D02*
X0051898Y0089305D01*
X0049963Y0087370D01*
X0050446Y0086886D01*
X0051414Y0086886D01*
X0051898Y0087370D01*
X0051898Y0089305D01*
X0051414Y0089788D02*
X0050446Y0089788D01*
X0049963Y0089305D01*
X0049963Y0087370D01*
X0048951Y0087370D02*
X0048467Y0086886D01*
X0047500Y0086886D01*
X0047016Y0087370D01*
X0048951Y0089305D01*
X0048951Y0087370D01*
X0048951Y0089305D02*
X0048467Y0089788D01*
X0047500Y0089788D01*
X0047016Y0089305D01*
X0047016Y0087370D01*
X0046005Y0086886D02*
X0044070Y0086886D01*
X0045037Y0086886D02*
X0045037Y0089788D01*
X0044070Y0088821D01*
X0040112Y0089305D02*
X0040112Y0088337D01*
X0039628Y0087853D01*
X0038177Y0087853D01*
X0038177Y0086886D02*
X0038177Y0089788D01*
X0039628Y0089788D01*
X0040112Y0089305D01*
X0037165Y0089788D02*
X0035230Y0089788D01*
X0035230Y0086886D01*
X0034219Y0086886D02*
X0033251Y0087853D01*
X0032284Y0087370D02*
X0032767Y0086886D01*
X0033735Y0086886D01*
X0034219Y0087370D01*
X0034219Y0089305D01*
X0033735Y0089788D01*
X0032767Y0089788D01*
X0032284Y0089305D01*
X0032284Y0087370D01*
X0030304Y0086886D02*
X0030304Y0089788D01*
X0029337Y0089788D02*
X0031272Y0089788D01*
X0035230Y0088337D02*
X0036198Y0088337D01*
X0035714Y0105174D02*
X0035714Y0108877D01*
X0037546Y0108260D02*
X0037546Y0105791D01*
X0032648Y0105174D02*
X0030179Y0105174D01*
X0032648Y0107643D01*
X0032648Y0108260D01*
X0032031Y0108877D01*
X0030797Y0108877D01*
X0030179Y0108260D01*
X0028965Y0108877D02*
X0028965Y0105174D01*
X0026496Y0105174D02*
X0026496Y0108877D01*
X0027731Y0107643D01*
X0028965Y0108877D01*
X0025282Y0108260D02*
X0025282Y0107026D01*
X0024665Y0106408D01*
X0022813Y0106408D01*
X0022813Y0105174D02*
X0022813Y0108877D01*
X0024665Y0108877D01*
X0025282Y0108260D01*
X0021599Y0108877D02*
X0019130Y0108877D01*
X0019130Y0105174D01*
X0021599Y0105174D01*
X0020364Y0107026D02*
X0019130Y0107026D01*
X0083897Y0107915D02*
X0083897Y0109150D01*
X0084514Y0109767D01*
X0086983Y0107298D01*
X0087600Y0107915D01*
X0087600Y0109150D01*
X0086983Y0109767D01*
X0084514Y0109767D01*
X0084514Y0110981D02*
X0086983Y0110981D01*
X0087600Y0111599D01*
X0087600Y0112833D01*
X0086983Y0113450D01*
X0085748Y0114665D02*
X0085748Y0117133D01*
X0083897Y0116516D02*
X0085748Y0114665D01*
X0084514Y0113450D02*
X0083897Y0112833D01*
X0083897Y0111599D01*
X0084514Y0110981D01*
X0083897Y0107915D02*
X0084514Y0107298D01*
X0086983Y0107298D01*
X0086983Y0106084D02*
X0087600Y0105467D01*
X0087600Y0104232D01*
X0086983Y0103615D01*
X0084514Y0106084D01*
X0086983Y0106084D01*
X0086983Y0103615D02*
X0084514Y0103615D01*
X0083897Y0104232D01*
X0083897Y0105467D01*
X0084514Y0106084D01*
X0087600Y0102401D02*
X0087600Y0099932D01*
X0087600Y0101166D02*
X0083897Y0101166D01*
X0085131Y0099932D01*
X0083897Y0098718D02*
X0083897Y0096249D01*
X0083897Y0097483D02*
X0087600Y0097483D01*
X0086983Y0095034D02*
X0087600Y0094417D01*
X0087600Y0093183D01*
X0086983Y0092566D01*
X0084514Y0095034D01*
X0086983Y0095034D01*
X0084514Y0095034D02*
X0083897Y0094417D01*
X0083897Y0093183D01*
X0084514Y0092566D01*
X0086983Y0092566D01*
X0085748Y0091351D02*
X0085748Y0088883D01*
X0083897Y0090734D01*
X0087600Y0090734D01*
X0087600Y0087668D02*
X0087600Y0085199D01*
X0085131Y0087668D01*
X0084514Y0087668D01*
X0083897Y0087051D01*
X0083897Y0085817D01*
X0084514Y0085199D01*
X0083897Y0083985D02*
X0087600Y0083985D01*
X0087600Y0081516D02*
X0083897Y0081516D01*
X0085131Y0082751D01*
X0083897Y0083985D01*
X0084514Y0080302D02*
X0085748Y0080302D01*
X0086366Y0079685D01*
X0086366Y0077833D01*
X0087600Y0077833D02*
X0083897Y0077833D01*
X0083897Y0079685D01*
X0084514Y0080302D01*
X0083897Y0076619D02*
X0083897Y0074150D01*
X0087600Y0074150D01*
X0087600Y0076619D01*
X0085748Y0075384D02*
X0085748Y0074150D01*
X0087600Y0116516D02*
X0083897Y0116516D01*
D15*
X0048734Y0099157D02*
X0050734Y0093906D01*
X0049734Y0093906D01*
X0049234Y0094906D01*
X0047234Y0094906D01*
X0046734Y0093906D01*
X0044982Y0093906D01*
X0044982Y0095657D01*
X0045734Y0096408D02*
X0045785Y0096383D01*
X0045835Y0096353D01*
X0045882Y0096321D01*
X0045928Y0096286D01*
X0045971Y0096248D01*
X0046012Y0096207D01*
X0046050Y0096164D01*
X0046085Y0096119D01*
X0046117Y0096071D01*
X0046146Y0096021D01*
X0046171Y0095970D01*
X0046194Y0095917D01*
X0046212Y0095862D01*
X0046228Y0095807D01*
X0046240Y0095750D01*
X0046248Y0095693D01*
X0046252Y0095636D01*
X0046253Y0095579D01*
X0046250Y0095521D01*
X0046243Y0095464D01*
X0046233Y0095407D01*
X0046234Y0095657D02*
X0047734Y0099157D01*
X0048734Y0099157D01*
X0048234Y0098157D02*
X0047482Y0095906D01*
X0048982Y0095906D01*
X0048234Y0098157D01*
X0044982Y0099157D02*
X0040734Y0099157D01*
X0040734Y0098157D01*
X0042734Y0098157D01*
X0042734Y0097157D01*
X0040734Y0097157D01*
X0040734Y0098157D01*
X0039234Y0098157D01*
X0039234Y0093906D01*
X0034734Y0093906D01*
X0034234Y0094906D01*
X0032234Y0094906D01*
X0031734Y0093906D01*
X0030734Y0093906D01*
X0032734Y0099157D01*
X0033734Y0099157D01*
X0035482Y0094906D01*
X0035482Y0099157D01*
X0036482Y0099157D01*
X0040734Y0099157D01*
X0038234Y0098157D02*
X0038234Y0094906D01*
X0036482Y0094906D01*
X0036482Y0098157D01*
X0038234Y0098157D01*
X0036482Y0098157D02*
X0036482Y0099157D01*
X0033234Y0098157D02*
X0032482Y0095906D01*
X0033982Y0095906D01*
X0033234Y0098157D01*
X0039482Y0093906D02*
X0043982Y0093906D01*
X0043982Y0096157D01*
X0044482Y0096157D01*
X0044526Y0096155D01*
X0044569Y0096149D01*
X0044611Y0096140D01*
X0044653Y0096127D01*
X0044693Y0096110D01*
X0044732Y0096090D01*
X0044769Y0096067D01*
X0044803Y0096040D01*
X0044836Y0096011D01*
X0044865Y0095978D01*
X0044892Y0095944D01*
X0044915Y0095907D01*
X0044935Y0095868D01*
X0044952Y0095828D01*
X0044965Y0095786D01*
X0044974Y0095744D01*
X0044980Y0095701D01*
X0044982Y0095657D01*
X0044734Y0097157D02*
X0043982Y0097157D01*
X0043982Y0098157D01*
X0044734Y0098157D01*
X0044778Y0098155D01*
X0044821Y0098149D01*
X0044863Y0098140D01*
X0044905Y0098127D01*
X0044945Y0098110D01*
X0044984Y0098090D01*
X0045021Y0098067D01*
X0045055Y0098040D01*
X0045088Y0098011D01*
X0045117Y0097978D01*
X0045144Y0097944D01*
X0045167Y0097907D01*
X0045187Y0097868D01*
X0045204Y0097828D01*
X0045217Y0097786D01*
X0045226Y0097744D01*
X0045232Y0097701D01*
X0045234Y0097657D01*
X0045232Y0097613D01*
X0045226Y0097570D01*
X0045217Y0097528D01*
X0045204Y0097486D01*
X0045187Y0097446D01*
X0045167Y0097407D01*
X0045144Y0097370D01*
X0045117Y0097336D01*
X0045088Y0097303D01*
X0045055Y0097274D01*
X0045021Y0097247D01*
X0044984Y0097224D01*
X0044945Y0097204D01*
X0044905Y0097187D01*
X0044863Y0097174D01*
X0044821Y0097165D01*
X0044778Y0097159D01*
X0044734Y0097157D01*
X0045734Y0096406D02*
X0045796Y0096452D01*
X0045855Y0096501D01*
X0045912Y0096554D01*
X0045966Y0096609D01*
X0046018Y0096667D01*
X0046066Y0096727D01*
X0046111Y0096790D01*
X0046153Y0096854D01*
X0046191Y0096921D01*
X0046227Y0096990D01*
X0046258Y0097061D01*
X0046286Y0097133D01*
X0046310Y0097206D01*
X0046331Y0097281D01*
X0046347Y0097356D01*
X0046360Y0097432D01*
X0046369Y0097509D01*
X0046374Y0097586D01*
X0046375Y0097663D01*
X0046372Y0097740D01*
X0046365Y0097817D01*
X0046354Y0097894D01*
X0046340Y0097970D01*
X0046321Y0098045D01*
X0046299Y0098119D01*
X0046273Y0098192D01*
X0046244Y0098263D01*
X0046210Y0098333D01*
X0046174Y0098401D01*
X0046133Y0098467D01*
X0046090Y0098530D01*
X0046043Y0098592D01*
X0045994Y0098651D01*
X0045941Y0098708D01*
X0045886Y0098761D01*
X0045827Y0098812D01*
X0045767Y0098860D01*
X0045704Y0098905D01*
X0045639Y0098946D01*
X0045571Y0098984D01*
X0045502Y0099019D01*
X0045432Y0099050D01*
X0045359Y0099077D01*
X0045286Y0099101D01*
X0045211Y0099121D01*
X0045136Y0099137D01*
X0045059Y0099149D01*
X0044983Y0099158D01*
X0042734Y0096157D02*
X0040734Y0096157D01*
X0040734Y0095157D01*
X0042734Y0095157D01*
X0042734Y0096157D01*
D16*
X0070467Y0096500D03*
X0070467Y0092563D03*
X0070467Y0088626D03*
X0070467Y0084689D03*
X0070467Y0080752D03*
X0070467Y0076815D03*
X0070467Y0072878D03*
X0070467Y0100437D03*
X0070467Y0104374D03*
X0070467Y0108311D03*
X0070467Y0112248D03*
X0070467Y0116185D03*
X0070467Y0120122D03*
X0010033Y0120122D03*
X0010033Y0116185D03*
X0010033Y0112248D03*
X0010033Y0108311D03*
X0010033Y0104374D03*
X0010033Y0100437D03*
X0010033Y0096500D03*
X0010033Y0092563D03*
X0010033Y0088626D03*
X0010033Y0084689D03*
X0010033Y0080752D03*
X0010033Y0076815D03*
X0010033Y0072878D03*
D17*
X0010033Y0074846D03*
X0010033Y0078783D03*
X0010033Y0082720D03*
X0010033Y0086657D03*
X0010033Y0090594D03*
X0010033Y0094531D03*
X0010033Y0098469D03*
X0010033Y0102406D03*
X0010033Y0106343D03*
X0010033Y0110280D03*
X0010033Y0114217D03*
X0010033Y0118154D03*
X0070467Y0118154D03*
X0070467Y0114217D03*
X0070467Y0110280D03*
X0070467Y0106343D03*
X0070467Y0102406D03*
X0070467Y0098469D03*
X0070467Y0094531D03*
X0070467Y0090594D03*
X0070467Y0086657D03*
X0070467Y0082720D03*
X0070467Y0078783D03*
X0070467Y0074846D03*
D18*
X0063872Y0066283D03*
X0059935Y0066283D03*
X0055998Y0066283D03*
X0052061Y0066283D03*
X0048124Y0066283D03*
X0044187Y0066283D03*
X0040250Y0066283D03*
X0036313Y0066283D03*
X0032376Y0066283D03*
X0028439Y0066283D03*
X0024502Y0066283D03*
X0020565Y0066283D03*
X0016628Y0066283D03*
X0016628Y0126717D03*
X0020565Y0126717D03*
X0024502Y0126717D03*
X0028439Y0126717D03*
X0032376Y0126717D03*
X0036313Y0126717D03*
X0040250Y0126717D03*
X0044187Y0126717D03*
X0048124Y0126717D03*
X0052061Y0126717D03*
X0055998Y0126717D03*
X0059935Y0126717D03*
X0063872Y0126717D03*
D19*
X0061904Y0126717D03*
X0057967Y0126717D03*
X0054030Y0126717D03*
X0050093Y0126717D03*
X0046156Y0126717D03*
X0042219Y0126717D03*
X0038281Y0126717D03*
X0034344Y0126717D03*
X0030407Y0126717D03*
X0026470Y0126717D03*
X0022533Y0126717D03*
X0018596Y0126717D03*
X0018596Y0066283D03*
X0022533Y0066283D03*
X0026470Y0066283D03*
X0030407Y0066283D03*
X0034344Y0066283D03*
X0038281Y0066283D03*
X0042219Y0066283D03*
X0046156Y0066283D03*
X0050093Y0066283D03*
X0054030Y0066283D03*
X0057967Y0066283D03*
X0061904Y0066283D03*
D20*
X0035245Y0173677D03*
X0035245Y0179377D03*
X0007745Y0179377D03*
X0007745Y0173677D03*
D21*
X0007524Y0194000D03*
X0035476Y0194000D03*
D22*
X0009886Y0194000D03*
D23*
X0024000Y0025250D03*
X0024000Y0015250D03*
X0034000Y0015250D03*
X0034000Y0025250D03*
X0044000Y0025250D03*
X0044000Y0015250D03*
X0054000Y0015250D03*
X0054000Y0025250D03*
X0064000Y0025250D03*
X0064000Y0015250D03*
D24*
X0024380Y0039006D03*
X0018580Y0039006D03*
X0018580Y0046506D03*
X0024380Y0046506D03*
X0024380Y0054006D03*
X0018580Y0054006D03*
M02*
