G75*
%MOIN*%
%OFA0B0*%
%FSLAX25Y25*%
%IPPOS*%
%LPD*%
%AMOC8*
5,1,8,0,0,1.08239X$1,22.5*
%
%ADD10R,0.05906X0.01378*%
%ADD11R,0.01378X0.05906*%
%ADD12R,0.03500X0.06400*%
%ADD13R,0.12500X0.06400*%
%ADD14R,0.05906X0.05118*%
%ADD15R,0.09449X0.11024*%
%ADD16R,0.05118X0.05906*%
D10*
X0008754Y0072878D03*
X0008754Y0074846D03*
X0008754Y0076815D03*
X0008754Y0078783D03*
X0008754Y0080752D03*
X0008754Y0082720D03*
X0008754Y0084689D03*
X0008754Y0086657D03*
X0008754Y0088626D03*
X0008754Y0090594D03*
X0008754Y0092563D03*
X0008754Y0094531D03*
X0008754Y0096500D03*
X0008754Y0098469D03*
X0008754Y0100437D03*
X0008754Y0102406D03*
X0008754Y0104374D03*
X0008754Y0106343D03*
X0008754Y0108311D03*
X0008754Y0110280D03*
X0008754Y0112248D03*
X0008754Y0114217D03*
X0008754Y0116185D03*
X0008754Y0118154D03*
X0008754Y0120122D03*
X0071746Y0120122D03*
X0071746Y0118154D03*
X0071746Y0116185D03*
X0071746Y0114217D03*
X0071746Y0112248D03*
X0071746Y0110280D03*
X0071746Y0108311D03*
X0071746Y0106343D03*
X0071746Y0104374D03*
X0071746Y0102406D03*
X0071746Y0100437D03*
X0071746Y0098469D03*
X0071746Y0096500D03*
X0071746Y0094531D03*
X0071746Y0092563D03*
X0071746Y0090594D03*
X0071746Y0088626D03*
X0071746Y0086657D03*
X0071746Y0084689D03*
X0071746Y0082720D03*
X0071746Y0080752D03*
X0071746Y0078783D03*
X0071746Y0076815D03*
X0071746Y0074846D03*
X0071746Y0072878D03*
D11*
X0063872Y0065004D03*
X0061904Y0065004D03*
X0059935Y0065004D03*
X0057967Y0065004D03*
X0055998Y0065004D03*
X0054030Y0065004D03*
X0052061Y0065004D03*
X0050093Y0065004D03*
X0048124Y0065004D03*
X0046156Y0065004D03*
X0044187Y0065004D03*
X0042219Y0065004D03*
X0040250Y0065004D03*
X0038281Y0065004D03*
X0036313Y0065004D03*
X0034344Y0065004D03*
X0032376Y0065004D03*
X0030407Y0065004D03*
X0028439Y0065004D03*
X0026470Y0065004D03*
X0024502Y0065004D03*
X0022533Y0065004D03*
X0020565Y0065004D03*
X0018596Y0065004D03*
X0016628Y0065004D03*
X0016628Y0127996D03*
X0018596Y0127996D03*
X0020565Y0127996D03*
X0022533Y0127996D03*
X0024502Y0127996D03*
X0026470Y0127996D03*
X0028439Y0127996D03*
X0030407Y0127996D03*
X0032376Y0127996D03*
X0034344Y0127996D03*
X0036313Y0127996D03*
X0038281Y0127996D03*
X0040250Y0127996D03*
X0042219Y0127996D03*
X0044187Y0127996D03*
X0046156Y0127996D03*
X0048124Y0127996D03*
X0050093Y0127996D03*
X0052061Y0127996D03*
X0054030Y0127996D03*
X0055998Y0127996D03*
X0057967Y0127996D03*
X0059935Y0127996D03*
X0061904Y0127996D03*
X0063872Y0127996D03*
D12*
X0030600Y0146400D03*
X0021500Y0146400D03*
X0012400Y0146400D03*
D13*
X0021500Y0171600D03*
D14*
X0007750Y0172760D03*
X0007750Y0180240D03*
X0035250Y0180240D03*
X0035250Y0172760D03*
D15*
X0033902Y0194000D03*
X0009098Y0194000D03*
D16*
X0017760Y0039000D03*
X0017760Y0046500D03*
X0017760Y0054000D03*
X0025240Y0054000D03*
X0025240Y0046500D03*
X0025240Y0039000D03*
M02*
