G75*
%MOIN*%
%OFA0B0*%
%FSLAX25Y25*%
%IPPOS*%
%LPD*%
%AMOC8*
5,1,8,0,0,1.08239X$1,22.5*
%
%ADD10R,0.06000X0.06000*%
%ADD11R,0.05918X0.06706*%
%ADD12R,0.06800X0.06800*%
%ADD13OC8,0.06800*%
%ADD14R,0.06706X0.05918*%
D10*
X0100250Y0010250D03*
X0100250Y0020250D03*
X0100250Y0030250D03*
X0100250Y0040250D03*
X0100250Y0050250D03*
X0100250Y0060250D03*
X0100250Y0070250D03*
X0100250Y0080250D03*
X0100250Y0090250D03*
X0100250Y0100250D03*
X0100250Y0110250D03*
X0100250Y0120250D03*
X0100250Y0130250D03*
X0100250Y0140250D03*
X0100250Y0150250D03*
X0100250Y0160250D03*
X0100250Y0170250D03*
X0100250Y0180250D03*
X0100250Y0190250D03*
X0100250Y0200250D03*
X0160250Y0200250D03*
X0160250Y0190250D03*
X0160250Y0180250D03*
X0160250Y0170250D03*
X0160250Y0160250D03*
X0160250Y0150250D03*
X0160250Y0140250D03*
X0160250Y0130250D03*
X0160250Y0120250D03*
X0160250Y0110250D03*
X0160250Y0100250D03*
X0160250Y0090250D03*
X0160250Y0080250D03*
X0160250Y0070250D03*
X0160250Y0060250D03*
X0160250Y0050250D03*
X0160250Y0040250D03*
X0160250Y0030250D03*
X0160250Y0020250D03*
X0160250Y0010250D03*
D11*
X0150240Y0010250D03*
X0142760Y0010250D03*
X0142760Y0020250D03*
X0150240Y0020250D03*
X0150240Y0030250D03*
X0142760Y0030250D03*
X0142760Y0040250D03*
X0142760Y0050250D03*
X0150240Y0050250D03*
X0150240Y0040250D03*
X0150240Y0060250D03*
X0142760Y0060250D03*
X0142760Y0070250D03*
X0150240Y0070250D03*
X0150240Y0080250D03*
X0150240Y0090250D03*
X0142760Y0090250D03*
X0142760Y0080250D03*
X0142760Y0100250D03*
X0150240Y0100250D03*
X0150240Y0110250D03*
X0142760Y0110250D03*
X0142760Y0120250D03*
X0142760Y0130250D03*
X0150240Y0130250D03*
X0150240Y0120250D03*
X0150240Y0140250D03*
X0142760Y0140250D03*
X0142760Y0150250D03*
X0150240Y0150250D03*
X0150240Y0160250D03*
X0150240Y0170250D03*
X0142760Y0170250D03*
X0142760Y0160250D03*
X0142760Y0180250D03*
X0150240Y0180250D03*
X0150240Y0190250D03*
X0142760Y0190250D03*
X0142760Y0200250D03*
X0150240Y0200250D03*
X0090240Y0190250D03*
X0082760Y0190250D03*
X0082760Y0180250D03*
X0090240Y0180250D03*
X0090240Y0170250D03*
X0082760Y0170250D03*
X0082760Y0160250D03*
X0090240Y0160250D03*
X0090240Y0150250D03*
X0082760Y0150250D03*
X0082760Y0140250D03*
X0090240Y0140250D03*
X0090240Y0130250D03*
X0082760Y0130250D03*
X0082760Y0120250D03*
X0090240Y0120250D03*
X0110260Y0100250D03*
X0117740Y0100250D03*
X0117740Y0090250D03*
X0117740Y0080250D03*
X0110260Y0080250D03*
X0110260Y0090250D03*
X0110260Y0070250D03*
X0117740Y0070250D03*
X0117740Y0060250D03*
X0110260Y0060250D03*
X0110260Y0050250D03*
X0110260Y0040250D03*
X0117740Y0040250D03*
X0117740Y0050250D03*
X0117740Y0030250D03*
X0110260Y0030250D03*
X0110260Y0020250D03*
X0117740Y0020250D03*
X0117740Y0010250D03*
X0110260Y0010250D03*
D12*
X0024000Y0015250D03*
D13*
X0024000Y0025250D03*
X0034000Y0025250D03*
X0034000Y0015250D03*
X0044000Y0015250D03*
X0044000Y0025250D03*
X0054000Y0025250D03*
X0054000Y0015250D03*
X0064000Y0015250D03*
X0064000Y0025250D03*
D14*
X0051500Y0096510D03*
X0051500Y0103990D03*
X0029000Y0103990D03*
X0029000Y0096510D03*
M02*
