%
M48
M72
T01C0.0200
T02C0.0320
T03C0.0400
%
T01
X1775Y3150
X1275Y3900
X900Y3400
X1275Y5400
X900Y5900
X1775Y7650
X2900Y9025
X3025Y7650
X1775Y10025
X3275Y11900
X5150Y9025
X5900Y8025
X6400Y7775
X6400Y7275
X6775Y6900
X6775Y6400
X8150Y7400
X8150Y7900
X8150Y8400
X8150Y8900
X8900Y9150
X8900Y10025
X8150Y10775
X6400Y11650
X5900Y11650
X6275Y10150
X6275Y9275
X7400Y13150
X7400Y14275
X7400Y15525
X7400Y16775
X7400Y18025
X7400Y19025
X4900Y20525
X4525Y20525
X4150Y20525
X4525Y18400
X4525Y18025
X2525Y18025
X2150Y18025
X1775Y18025
X650Y16025
X650Y15650
X13150Y15525
X13150Y14525
X13150Y13525
X13150Y12525
X13150Y11525
X13150Y10525
X13150Y9525
X13150Y8525
X13150Y7525
X13150Y6525
X13150Y5525
X13150Y4525
X13150Y3525
X13150Y2525
X13150Y1525
X13150Y525
X13150Y16525
X13150Y17525
X13150Y18525
X13150Y19525
T02
X16025Y19025
X16025Y18025
X16025Y17025
X16025Y16025
X16025Y15025
X16025Y14025
X16025Y13025
X16025Y12025
X16025Y11025
X16025Y10025
X16025Y9025
X16025Y8025
X16025Y7025
X16025Y6025
X16025Y5025
X16025Y4025
X16025Y3025
X16025Y2025
X16025Y1025
X10025Y1025
X10025Y2025
X10025Y3025
X10025Y4025
X10025Y5025
X10025Y6025
X10025Y7025
X10025Y8025
X10025Y9025
X10025Y10025
X10025Y11025
X10025Y12025
X10025Y13025
X10025Y14025
X10025Y15025
X10025Y16025
X10025Y17025
X10025Y18025
X10025Y19025
X10025Y20025
X16025Y20025
T03
X2400Y1525
X2400Y2525
X3400Y2525
X3400Y1525
X4400Y1525
X4400Y2525
X5400Y2525
X5400Y1525
X6400Y1525
X6400Y2525
M30
